<svg width="972" height="743" viewBox="0 0 972 743" fill="none" xmlns="http://www.w3.org/2000/svg">
<g clip-path="url(#clip0_301_54)">
<path d="M617.824 632.982L617.881 632.926L617.825 632.868L617.767 632.925L617.824 632.982ZM618.671 633.857L618.727 633.914L618.783 633.858L618.728 633.802L618.671 633.857ZM612.119 640.381L612.063 640.437L612.119 640.494L612.176 640.438L612.119 640.381ZM611.272 639.534L611.215 639.477L611.159 639.534L611.215 639.59L611.272 639.534ZM619.744 632.982L619.801 632.925L619.744 632.869L619.687 632.925L619.744 632.982ZM626.267 639.505L626.325 639.561L626.38 639.505L626.324 639.449L626.267 639.505ZM625.42 640.381L625.364 640.438L625.421 640.495L625.478 640.437L625.42 640.381ZM618.869 633.857L618.812 633.801L618.755 633.858L618.812 633.914L618.869 633.857ZM618.163 634.535V634.455H618.083V634.535H618.163ZM619.377 634.535H619.457V634.455H619.377V634.535ZM619.377 652.75V652.83H619.457V652.75H619.377ZM618.163 652.75H618.083V652.83H618.163V652.75ZM617.766 633.038L618.613 633.913L618.728 633.802L617.881 632.926L617.766 633.038ZM618.614 633.801L612.063 640.324L612.176 640.438L618.727 633.914L618.614 633.801ZM612.176 640.324L611.329 639.477L611.215 639.59L612.063 640.437L612.176 640.324ZM611.329 639.59L617.88 633.039L617.767 632.925L611.215 639.477L611.329 639.59ZM619.687 633.039L626.211 639.562L626.324 639.449L619.801 632.925L619.687 633.039ZM626.21 639.45L625.363 640.325L625.478 640.437L626.325 639.561L626.21 639.45ZM625.477 640.324L618.925 633.801L618.812 633.914L625.364 640.438L625.477 640.324ZM618.925 633.914L619.801 633.039L619.687 632.925L618.812 633.801L618.925 633.914ZM618.163 634.615H619.377V634.455H618.163V634.615ZM619.297 634.535V652.75H619.457V634.535H619.297ZM619.377 652.67H618.163V652.83H619.377V652.67ZM618.243 652.75V634.535H618.083V652.75H618.243Z" fill="#1B1B19"/>
<path d="M617.824 632.982L618.671 633.857L612.119 640.381L611.272 639.534L617.824 632.982ZM619.744 632.982L626.267 639.505L625.42 640.381L618.869 633.857L619.744 632.982ZM618.163 634.535H619.377V652.75H618.163V634.535Z" fill="#1B1B19"/>
<path d="M180.494 417.075H180.414V417.155H180.494V417.075ZM180.494 416.164V416.084H180.414V416.164H180.494ZM188.182 416.164H188.262V416.084H188.182V416.164ZM188.182 417.075V417.155H188.262V417.075H188.182ZM188.224 417.096L188.173 417.035L188.112 417.087L188.163 417.148L188.224 417.096ZM188.923 416.503L188.984 416.451L188.933 416.39L188.872 416.442L188.923 416.503ZM192.354 420.569L192.405 420.631L192.468 420.58L192.416 420.518L192.354 420.569ZM191.656 421.141L191.595 421.193L191.645 421.253L191.706 421.203L191.656 421.141ZM182.358 429.846H182.278V429.926H182.358V429.846ZM182.358 417.308V417.228H182.278V417.308H182.358ZM183.268 417.308H183.348V417.228H183.268V417.308ZM183.268 429.846V429.926H183.348V429.846H183.268ZM191.677 426.182H191.597V426.262H191.677V426.182ZM191.677 421.184V421.104H191.597V421.184H191.677ZM192.587 421.184H192.667V421.104H192.587V421.184ZM192.587 426.182V426.262H192.667V426.182H192.587ZM188.224 430.079L188.165 430.026L188.111 430.086L188.172 430.139L188.224 430.079ZM191.677 426.203L191.73 426.144L191.671 426.09L191.617 426.15L191.677 426.203ZM192.354 426.818L192.414 426.871L192.467 426.812L192.408 426.758L192.354 426.818ZM188.902 430.672L188.849 430.732L188.909 430.785L188.962 430.726L188.902 430.672ZM180.494 430.99H180.414V431.07H180.494V430.99ZM180.494 430.079V429.999H180.414V430.079H180.494ZM188.203 430.079H188.283V429.999H188.203V430.079ZM188.203 430.99V431.07H188.283V430.99H188.203ZM180.574 417.075V416.164H180.414V417.075H180.574ZM180.494 416.244H188.182V416.084H180.494V416.244ZM188.102 416.164V417.075H188.262V416.164H188.102ZM188.182 416.995H180.494V417.155H188.182V416.995ZM188.276 417.157L188.975 416.564L188.872 416.442L188.173 417.035L188.276 417.157ZM188.862 416.554L192.293 420.621L192.416 420.518L188.984 416.451L188.862 416.554ZM192.304 420.508L191.605 421.079L191.706 421.203L192.405 420.631L192.304 420.508ZM191.717 421.09L188.285 417.044L188.163 417.148L191.595 421.193L191.717 421.09ZM182.438 429.846V417.308H182.278V429.846H182.438ZM182.358 417.388H183.268V417.228H182.358V417.388ZM183.188 417.308V429.846H183.348V417.308H183.188ZM183.268 429.766H182.358V429.926H183.268V429.766ZM191.757 426.182V421.184H191.597V426.182H191.757ZM191.677 421.264H192.587V421.104H191.677V421.264ZM192.507 421.184V426.182H192.667V421.184H192.507ZM192.587 426.102H191.677V426.262H192.587V426.102ZM188.284 430.132L191.736 426.257L191.617 426.15L188.165 430.026L188.284 430.132ZM191.623 426.263L192.301 426.877L192.408 426.758L191.73 426.144L191.623 426.263ZM192.295 426.764L188.843 430.619L188.962 430.726L192.414 426.871L192.295 426.764ZM188.955 430.612L188.277 430.019L188.172 430.139L188.849 430.732L188.955 430.612ZM180.574 430.99V430.079H180.414V430.99H180.574ZM180.494 430.159H188.203V429.999H180.494V430.159ZM188.123 430.079V430.99H188.283V430.079H188.123ZM188.203 430.91H180.494V431.07H188.203V430.91ZM206.598 417.075H206.518V417.155H206.598V417.075ZM206.598 416.164V416.084H206.518V416.164H206.598ZM210.368 416.164H210.448V416.084H210.368V416.164ZM210.368 417.075V417.155H210.448V417.075H210.368ZM203.251 419.129L203.195 419.073L203.138 419.129L203.195 419.186L203.251 419.129ZM205.941 416.439L205.998 416.383L205.941 416.326L205.885 416.383L205.941 416.439ZM206.577 417.075L206.633 417.131L206.69 417.075L206.633 417.018L206.577 417.075ZM203.887 419.765L203.83 419.821L203.887 419.878L203.943 419.821L203.887 419.765ZM210.389 417.075L210.332 417.018L210.276 417.075L210.332 417.131L210.389 417.075ZM211.024 416.439L211.081 416.383L211.024 416.326L210.968 416.383L211.024 416.439ZM213.735 419.129L213.792 419.186L213.849 419.129L213.792 419.072L213.735 419.129ZM213.079 419.786L213.022 419.842L213.079 419.899L213.135 419.842L213.079 419.786ZM206.026 429.507L205.95 429.482L205.925 429.557L205.999 429.583L206.026 429.507ZM210.114 417.414L210.139 417.338L210.063 417.312L210.038 417.388L210.114 417.414ZM210.982 417.71L211.058 417.736L211.083 417.66L211.008 417.634L210.982 417.71ZM206.873 429.804L206.847 429.879L206.923 429.906L206.949 429.83L206.873 429.804ZM202.976 427.368H202.896V427.448H202.976V427.368ZM202.976 419.786V419.706H202.896V419.786H202.976ZM203.887 419.786H203.967V419.706H203.887V419.786ZM203.887 427.368V427.448H203.967V427.368H203.887ZM213.079 427.389H212.999V427.469H213.079V427.389ZM213.079 419.807V419.727H212.999V419.807H213.079ZM213.99 419.807H214.07V419.727H213.99V419.807ZM213.99 427.389V427.469H214.07V427.389H213.99ZM203.251 428.025L203.195 427.968L203.138 428.025L203.195 428.081L203.251 428.025ZM203.887 427.389L203.943 427.333L203.887 427.276L203.83 427.333L203.887 427.389ZM206.577 430.079L206.633 430.136L206.69 430.079L206.633 430.023L206.577 430.079ZM205.941 430.715L205.885 430.771L205.941 430.828L205.998 430.771L205.941 430.715ZM210.389 430.079L210.333 430.022L210.276 430.078L210.331 430.135L210.389 430.079ZM213.079 427.411L213.135 427.354L213.079 427.298L213.022 427.354L213.079 427.411ZM213.714 428.046L213.771 428.103L213.827 428.046L213.771 427.989L213.714 428.046ZM211.024 430.736L210.967 430.791L211.023 430.85L211.081 430.792L211.024 430.736ZM206.598 430.99H206.518V431.07H206.598V430.99ZM206.598 430.079V429.999H206.518V430.079H206.598ZM210.368 430.079H210.448V429.999H210.368V430.079ZM210.368 430.99V431.07H210.448V430.99H210.368ZM206.678 417.075V416.164H206.518V417.075H206.678ZM206.598 416.244H210.368V416.084H206.598V416.244ZM210.288 416.164V417.075H210.448V416.164H210.288ZM210.368 416.995H206.598V417.155H210.368V416.995ZM203.308 419.186L205.998 416.496L205.885 416.383L203.195 419.073L203.308 419.186ZM205.885 416.496L206.52 417.131L206.633 417.018L205.998 416.383L205.885 416.496ZM206.52 417.018L203.83 419.708L203.943 419.821L206.633 417.131L206.52 417.018ZM203.943 419.708L203.308 419.073L203.195 419.186L203.83 419.821L203.943 419.708ZM210.445 417.131L211.081 416.496L210.968 416.383L210.332 417.018L210.445 417.131ZM210.968 416.496L213.679 419.186L213.792 419.072L211.081 416.383L210.968 416.496ZM213.679 419.073L213.022 419.729L213.135 419.842L213.792 419.186L213.679 419.073ZM213.136 419.729L210.446 417.018L210.332 417.131L213.022 419.842L213.136 419.729ZM206.102 429.533L210.189 417.439L210.038 417.388L205.95 429.482L206.102 429.533ZM210.088 417.489L210.956 417.786L211.008 417.634L210.139 417.338L210.088 417.489ZM210.906 417.684L206.797 429.778L206.949 429.83L211.058 417.736L210.906 417.684ZM206.899 429.728L206.052 429.432L205.999 429.583L206.847 429.879L206.899 429.728ZM203.056 427.368V419.786H202.896V427.368H203.056ZM202.976 419.866H203.887V419.706H202.976V419.866ZM203.807 419.786V427.368H203.967V419.786H203.807ZM203.887 427.288H202.976V427.448H203.887V427.288ZM213.159 427.389V419.807H212.999V427.389H213.159ZM213.079 419.887H213.99V419.727H213.079V419.887ZM213.91 419.807V427.389H214.07V419.807H213.91ZM213.99 427.309H213.079V427.469H213.99V427.309ZM203.308 428.081L203.943 427.446L203.83 427.333L203.195 427.968L203.308 428.081ZM203.83 427.446L206.52 430.136L206.633 430.023L203.943 427.333L203.83 427.446ZM206.52 430.023L205.885 430.658L205.998 430.771L206.633 430.136L206.52 430.023ZM205.998 430.658L203.308 427.968L203.195 428.081L205.885 430.771L205.998 430.658ZM210.445 430.136L213.135 427.467L213.022 427.354L210.333 430.022L210.445 430.136ZM213.022 427.467L213.658 428.103L213.771 427.989L213.135 427.354L213.022 427.467ZM213.658 427.989L210.968 430.679L211.081 430.792L213.771 428.103L213.658 427.989ZM211.082 430.68L210.446 430.024L210.331 430.135L210.967 430.791L211.082 430.68ZM206.678 430.99V430.079H206.518V430.99H206.678ZM206.598 430.159H210.368V429.999H206.598V430.159ZM210.288 430.079V430.99H210.448V430.079H210.288ZM210.368 430.91H206.598V431.07H210.368V430.91ZM220.145 417.075H220.065V417.155H220.145V417.075ZM220.145 416.164V416.084H220.065V416.164H220.145ZM223.915 416.164H223.995V416.084H223.915V416.164ZM223.915 417.075V417.155H223.995V417.075H223.915ZM216.799 419.129L216.742 419.073L216.686 419.129L216.742 419.186L216.799 419.129ZM219.489 416.439L219.545 416.383L219.489 416.326L219.432 416.383L219.489 416.439ZM220.124 417.075L220.181 417.131L220.237 417.075L220.181 417.018L220.124 417.075ZM217.434 419.765L217.378 419.821L217.434 419.878L217.491 419.821L217.434 419.765ZM223.937 417.075L223.88 417.018L223.824 417.075L223.88 417.131L223.937 417.075ZM224.572 416.439L224.628 416.383L224.572 416.326L224.515 416.383L224.572 416.439ZM227.283 419.129L227.34 419.186L227.396 419.129L227.339 419.072L227.283 419.129ZM226.627 419.786L226.57 419.842L226.626 419.899L226.683 419.842L226.627 419.786ZM219.574 429.507L219.498 429.482L219.472 429.557L219.547 429.583L219.574 429.507ZM223.661 417.414L223.687 417.338L223.611 417.312L223.586 417.388L223.661 417.414ZM224.53 417.71L224.605 417.736L224.631 417.66L224.556 417.634L224.53 417.71ZM220.421 429.804L220.394 429.879L220.471 429.906L220.497 429.83L220.421 429.804ZM216.524 427.368H216.444V427.448H216.524V427.368ZM216.524 419.786V419.706H216.444V419.786H216.524ZM217.434 419.786H217.514V419.706H217.434V419.786ZM217.434 427.368V427.448H217.514V427.368H217.434ZM226.627 427.389H226.547V427.469H226.627V427.389ZM226.627 419.807V419.727H226.547V419.807H226.627ZM227.537 419.807H227.617V419.727H227.537V419.807ZM227.537 427.389V427.469H227.617V427.389H227.537ZM216.799 428.025L216.742 427.968L216.686 428.025L216.742 428.081L216.799 428.025ZM217.434 427.389L217.491 427.333L217.434 427.276L217.378 427.333L217.434 427.389ZM220.124 430.079L220.181 430.136L220.237 430.079L220.181 430.023L220.124 430.079ZM219.489 430.715L219.432 430.771L219.489 430.828L219.545 430.771L219.489 430.715ZM223.937 430.079L223.88 430.022L223.824 430.078L223.879 430.135L223.937 430.079ZM226.627 427.411L226.683 427.354L226.627 427.298L226.57 427.354L226.627 427.411ZM227.262 428.046L227.318 428.103L227.375 428.046L227.318 427.989L227.262 428.046ZM224.572 430.736L224.515 430.791L224.571 430.85L224.629 430.792L224.572 430.736ZM220.145 430.99H220.065V431.07H220.145V430.99ZM220.145 430.079V429.999H220.065V430.079H220.145ZM223.915 430.079H223.995V429.999H223.915V430.079ZM223.915 430.99V431.07H223.995V430.99H223.915ZM220.225 417.075V416.164H220.065V417.075H220.225ZM220.145 416.244H223.915V416.084H220.145V416.244ZM223.835 416.164V417.075H223.995V416.164H223.835ZM223.915 416.995H220.145V417.155H223.915V416.995ZM216.856 419.186L219.545 416.496L219.432 416.383L216.742 419.073L216.856 419.186ZM219.432 416.496L220.068 417.131L220.181 417.018L219.545 416.383L219.432 416.496ZM220.068 417.018L217.378 419.708L217.491 419.821L220.181 417.131L220.068 417.018ZM217.491 419.708L216.856 419.073L216.742 419.186L217.378 419.821L217.491 419.708ZM223.993 417.131L224.629 416.496L224.515 416.383L223.88 417.018L223.993 417.131ZM224.516 416.496L227.227 419.186L227.339 419.072L224.628 416.383L224.516 416.496ZM227.227 419.073L226.57 419.729L226.683 419.842L227.34 419.186L227.227 419.073ZM226.683 419.729L223.993 417.018L223.88 417.131L226.57 419.842L226.683 419.729ZM219.649 429.533L223.737 417.439L223.586 417.388L219.498 429.482L219.649 429.533ZM223.635 417.489L224.504 417.786L224.556 417.634L223.687 417.338L223.635 417.489ZM224.454 417.684L220.345 429.778L220.497 429.83L224.605 417.736L224.454 417.684ZM220.447 429.728L219.6 429.432L219.547 429.583L220.394 429.879L220.447 429.728ZM216.604 427.368V419.786H216.444V427.368H216.604ZM216.524 419.866H217.434V419.706H216.524V419.866ZM217.354 419.786V427.368H217.514V419.786H217.354ZM217.434 427.288H216.524V427.448H217.434V427.288ZM226.707 427.389V419.807H226.547V427.389H226.707ZM226.627 419.887H227.537V419.727H226.627V419.887ZM227.457 419.807V427.389H227.617V419.807H227.457ZM227.537 427.309H226.627V427.469H227.537V427.309ZM216.856 428.081L217.491 427.446L217.378 427.333L216.742 427.968L216.856 428.081ZM217.378 427.446L220.068 430.136L220.181 430.023L217.491 427.333L217.378 427.446ZM220.068 430.023L219.432 430.658L219.545 430.771L220.181 430.136L220.068 430.023ZM219.545 430.658L216.856 427.968L216.742 428.081L219.432 430.771L219.545 430.658ZM223.993 430.136L226.683 427.467L226.57 427.354L223.88 430.022L223.993 430.136ZM226.57 427.467L227.205 428.103L227.318 427.989L226.683 427.354L226.57 427.467ZM227.205 427.989L224.515 430.679L224.629 430.792L227.318 428.103L227.205 427.989ZM224.63 430.68L223.994 430.024L223.879 430.135L224.515 430.791L224.63 430.68ZM220.225 430.99V430.079H220.065V430.99H220.225ZM220.145 430.159H223.915V429.999H220.145V430.159ZM223.835 430.079V430.99H223.995V430.079H223.835ZM223.915 430.91H220.145V431.07H223.915V430.91ZM230.474 417.075H230.394V417.155H230.474V417.075ZM230.474 416.164V416.084H230.394V416.164H230.474ZM236.087 416.164H236.167V416.084H236.087V416.164ZM236.087 417.075V417.155H236.167V417.075H236.087ZM233.651 421.756L233.58 421.718L233.543 421.789L233.614 421.826L233.651 421.756ZM236.404 416.545L236.441 416.474L236.371 416.437L236.334 416.508L236.404 416.545ZM237.209 416.969L237.28 417.006L237.317 416.935L237.246 416.898L237.209 416.969ZM234.456 422.179L234.418 422.25L234.489 422.287L234.526 422.216L234.456 422.179ZM230.897 423.111H230.817V423.191H230.897V423.111ZM230.897 422.2V422.12H230.817V422.2H230.897ZM236.447 422.2H236.527V422.12H236.447V422.2ZM236.447 423.111V423.191H236.527V423.111H236.447ZM233.058 430.757L232.985 430.724L232.952 430.797L233.024 430.83L233.058 430.757ZM236.828 422.327L236.861 422.254L236.788 422.222L236.755 422.295L236.828 422.327ZM237.675 422.709L237.748 422.741L237.781 422.668L237.708 422.636L237.675 422.709ZM233.884 431.138L233.85 431.211L233.924 431.245L233.957 431.171L233.884 431.138ZM229.436 427.029L229.391 426.963L229.325 427.008L229.37 427.074L229.436 427.029ZM230.177 426.521L230.244 426.476L230.198 426.41L230.132 426.455L230.177 426.521ZM233.037 430.736L233.082 430.802L233.148 430.757L233.103 430.691L233.037 430.736ZM232.295 431.244L232.229 431.289L232.274 431.356L232.341 431.31L232.295 431.244ZM230.554 417.075V416.164H230.394V417.075H230.554ZM230.474 416.244H236.087V416.084H230.474V416.244ZM236.007 416.164V417.075H236.167V416.164H236.007ZM236.087 416.995H230.474V417.155H236.087V416.995ZM233.722 421.793L236.475 416.583L236.334 416.508L233.58 421.718L233.722 421.793ZM236.367 416.616L237.172 417.04L237.246 416.898L236.441 416.474L236.367 416.616ZM237.138 416.931L234.385 422.142L234.526 422.216L237.28 417.006L237.138 416.931ZM234.493 422.108L233.688 421.685L233.614 421.826L234.418 422.25L234.493 422.108ZM230.977 423.111V422.2H230.817V423.111H230.977ZM230.897 422.28H236.447V422.12H230.897V422.28ZM236.367 422.2V423.111H236.527V422.2H236.367ZM236.447 423.031H230.897V423.191H236.447V423.031ZM233.131 430.79L236.901 422.36L236.755 422.295L232.985 430.724L233.131 430.79ZM236.795 422.4L237.642 422.782L237.708 422.636L236.861 422.254L236.795 422.4ZM237.602 422.676L233.811 431.105L233.957 431.171L237.748 422.741L237.602 422.676ZM233.917 431.066L233.091 430.684L233.024 430.83L233.85 431.211L233.917 431.066ZM229.481 427.095L230.223 426.587L230.132 426.455L229.391 426.963L229.481 427.095ZM230.111 426.566L232.97 430.781L233.103 430.691L230.244 426.476L230.111 426.566ZM232.991 430.67L232.25 431.178L232.341 431.31L233.082 430.802L232.991 430.67ZM232.362 431.199L229.502 426.984L229.37 427.074L232.229 431.289L232.362 431.199Z" fill="#1B1B19"/>
<path d="M180.494 417.075V416.164H188.182V417.075H180.494ZM188.224 417.096L188.923 416.503L192.354 420.569L191.656 421.141L188.224 417.096ZM182.358 429.846V417.308H183.268V429.846H182.358ZM191.677 426.182V421.184H192.587V426.182H191.677ZM188.224 430.079L191.677 426.203L192.354 426.818L188.902 430.672L188.224 430.079ZM180.494 430.99V430.079H188.203V430.99H180.494ZM206.598 417.075V416.164H210.368V417.075H206.598ZM203.251 419.129L205.941 416.439L206.577 417.075L203.887 419.765L203.251 419.129ZM210.389 417.075L211.024 416.439L213.735 419.129L213.079 419.786L210.389 417.075ZM206.026 429.507L210.114 417.414L210.982 417.71L206.873 429.804L206.026 429.507ZM202.976 427.368V419.786H203.887V427.368H202.976ZM213.079 427.389V419.807H213.99V427.389H213.079ZM203.251 428.025L203.887 427.389L206.577 430.079L205.941 430.715L203.251 428.025ZM210.389 430.079L213.079 427.411L213.714 428.046L211.024 430.736L210.389 430.079ZM206.598 430.99V430.079H210.368V430.99H206.598ZM220.145 417.075V416.164H223.915V417.075H220.145ZM216.799 419.129L219.489 416.439L220.124 417.075L217.434 419.765L216.799 419.129ZM223.937 417.075L224.572 416.439L227.283 419.129L226.627 419.786L223.937 417.075ZM219.574 429.507L223.661 417.414L224.53 417.71L220.421 429.804L219.574 429.507ZM216.524 427.368V419.786H217.434V427.368H216.524ZM226.627 427.389V419.807H227.537V427.389H226.627ZM216.799 428.025L217.434 427.389L220.124 430.079L219.489 430.715L216.799 428.025ZM223.937 430.079L226.627 427.411L227.262 428.046L224.572 430.736L223.937 430.079ZM220.145 430.99V430.079H223.915V430.99H220.145ZM230.474 417.075V416.164H236.087V417.075H230.474ZM233.651 421.756L236.404 416.545L237.209 416.969L234.456 422.179L233.651 421.756ZM230.897 423.111V422.2H236.447V423.111H230.897ZM233.058 430.757L236.828 422.327L237.675 422.709L233.884 431.138L233.058 430.757ZM229.436 427.029L230.177 426.521L233.037 430.736L232.295 431.244L229.436 427.029Z" fill="#1B1B19"/>
<path d="M333.094 413.315H333.014V413.395H333.094V413.315ZM333.094 412.404V412.324H333.014V412.404H333.094ZM340.782 412.404H340.862V412.324H340.782V412.404ZM340.782 413.315V413.395H340.862V413.315H340.782ZM340.824 413.336L340.773 413.275L340.712 413.327L340.763 413.388L340.824 413.336ZM341.523 412.743L341.584 412.691L341.533 412.63L341.472 412.682L341.523 412.743ZM344.954 416.809L345.005 416.871L345.068 416.82L345.016 416.758L344.954 416.809ZM344.256 417.381L344.194 417.433L344.245 417.493L344.306 417.443L344.256 417.381ZM334.957 426.086H334.877V426.166H334.957V426.086ZM334.957 413.548V413.468H334.877V413.548H334.957ZM335.868 413.548H335.948V413.468H335.868V413.548ZM335.868 426.086V426.166H335.948V426.086H335.868ZM344.277 422.422H344.197V422.502H344.277V422.422ZM344.277 417.424V417.344H344.197V417.424H344.277ZM345.187 417.424H345.267V417.344H345.187V417.424ZM345.187 422.422V422.502H345.267V422.422H345.187ZM340.824 426.319L340.765 426.266L340.711 426.326L340.772 426.379L340.824 426.319ZM344.277 422.443L344.33 422.384L344.271 422.33L344.217 422.39L344.277 422.443ZM344.954 423.058L345.014 423.111L345.067 423.052L345.008 422.998L344.954 423.058ZM341.502 426.912L341.449 426.972L341.509 427.025L341.562 426.966L341.502 426.912ZM333.094 427.23H333.014V427.31H333.094V427.23ZM333.094 426.319V426.239H333.014V426.319H333.094ZM340.803 426.319H340.883V426.239H340.803V426.319ZM340.803 427.23V427.31H340.883V427.23H340.803ZM333.174 413.315V412.404H333.014V413.315H333.174ZM333.094 412.484H340.782V412.324H333.094V412.484ZM340.702 412.404V413.315H340.862V412.404H340.702ZM340.782 413.235H333.094V413.395H340.782V413.235ZM340.876 413.397L341.575 412.804L341.472 412.682L340.773 413.275L340.876 413.397ZM341.462 412.794L344.893 416.861L345.016 416.758L341.584 412.691L341.462 412.794ZM344.904 416.748L344.205 417.319L344.306 417.443L345.005 416.871L344.904 416.748ZM344.317 417.33L340.885 413.284L340.763 413.388L344.194 417.433L344.317 417.33ZM335.037 426.086V413.548H334.877V426.086H335.037ZM334.957 413.628H335.868V413.468H334.957V413.628ZM335.788 413.548V426.086H335.948V413.548H335.788ZM335.868 426.006H334.957V426.166H335.868V426.006ZM344.357 422.422V417.424H344.197V422.422H344.357ZM344.277 417.504H345.187V417.344H344.277V417.504ZM345.107 417.424V422.422H345.267V417.424H345.107ZM345.187 422.342H344.277V422.502H345.187V422.342ZM340.884 426.372L344.336 422.497L344.217 422.39L340.765 426.266L340.884 426.372ZM344.223 422.503L344.901 423.117L345.008 422.998L344.33 422.384L344.223 422.503ZM344.895 423.004L341.443 426.859L341.562 426.966L345.014 423.111L344.895 423.004ZM341.555 426.852L340.877 426.259L340.772 426.379L341.449 426.972L341.555 426.852ZM333.174 427.23V426.319H333.014V427.23H333.174ZM333.094 426.399H340.803V426.239H333.094V426.399ZM340.723 426.319V427.23H340.883V426.319H340.723ZM340.803 427.15H333.094V427.31H340.803V427.15ZM359.198 413.315H359.118V413.395H359.198V413.315ZM359.198 412.404V412.324H359.118V412.404H359.198ZM362.968 412.404H363.048V412.324H362.968V412.404ZM362.968 413.315V413.395H363.048V413.315H362.968ZM355.851 415.369L355.795 415.313L355.738 415.369L355.795 415.426L355.851 415.369ZM358.541 412.679L358.598 412.623L358.541 412.566L358.485 412.623L358.541 412.679ZM359.176 413.315L359.233 413.371L359.29 413.315L359.233 413.258L359.176 413.315ZM356.487 416.005L356.43 416.061L356.487 416.118L356.543 416.061L356.487 416.005ZM362.989 413.315L362.932 413.258L362.876 413.314L362.932 413.371L362.989 413.315ZM363.624 412.679L363.681 412.623L363.624 412.566L363.568 412.623L363.624 412.679ZM366.335 415.369L366.392 415.426L366.449 415.369L366.392 415.312L366.335 415.369ZM365.679 416.026L365.622 416.082L365.679 416.139L365.735 416.082L365.679 416.026ZM358.626 425.747L358.55 425.722L358.525 425.797L358.599 425.823L358.626 425.747ZM362.714 413.654L362.739 413.578L362.663 413.552L362.638 413.628L362.714 413.654ZM363.582 413.95L363.658 413.976L363.683 413.9L363.608 413.874L363.582 413.95ZM359.473 426.044L359.447 426.119L359.523 426.146L359.549 426.07L359.473 426.044ZM355.576 423.608H355.496V423.688H355.576V423.608ZM355.576 416.026V415.946H355.496V416.026H355.576ZM356.487 416.026H356.567V415.946H356.487V416.026ZM356.487 423.608V423.688H356.567V423.608H356.487ZM365.679 423.629H365.599V423.709H365.679V423.629ZM365.679 416.047V415.967H365.599V416.047H365.679ZM366.589 416.047H366.669V415.967H366.589V416.047ZM366.589 423.629V423.709H366.669V423.629H366.589ZM355.851 424.265L355.795 424.208L355.738 424.265L355.795 424.321L355.851 424.265ZM356.487 423.629L356.543 423.573L356.487 423.516L356.43 423.573L356.487 423.629ZM359.176 426.319L359.233 426.376L359.29 426.319L359.233 426.263L359.176 426.319ZM358.541 426.955L358.485 427.011L358.541 427.068L358.598 427.011L358.541 426.955ZM362.989 426.319L362.933 426.262L362.876 426.318L362.931 426.375L362.989 426.319ZM365.679 423.651L365.735 423.594L365.679 423.538L365.622 423.594L365.679 423.651ZM366.314 424.286L366.371 424.343L366.427 424.286L366.371 424.229L366.314 424.286ZM363.624 426.976L363.567 427.031L363.623 427.09L363.681 427.032L363.624 426.976ZM359.198 427.23H359.118V427.31H359.198V427.23ZM359.198 426.319V426.239H359.118V426.319H359.198ZM362.968 426.319H363.048V426.239H362.968V426.319ZM362.968 427.23V427.31H363.048V427.23H362.968ZM359.278 413.315V412.404H359.118V413.315H359.278ZM359.198 412.484H362.968V412.324H359.198V412.484ZM362.888 412.404V413.315H363.048V412.404H362.888ZM362.968 413.235H359.198V413.395H362.968V413.235ZM355.908 415.426L358.598 412.736L358.485 412.623L355.795 415.313L355.908 415.426ZM358.485 412.736L359.12 413.371L359.233 413.258L358.598 412.623L358.485 412.736ZM359.12 413.258L356.43 415.948L356.543 416.061L359.233 413.371L359.12 413.258ZM356.543 415.948L355.908 415.313L355.795 415.426L356.43 416.061L356.543 415.948ZM363.045 413.371L363.681 412.736L363.568 412.623L362.932 413.258L363.045 413.371ZM363.568 412.736L366.279 415.426L366.392 415.312L363.681 412.623L363.568 412.736ZM366.279 415.313L365.622 415.969L365.735 416.082L366.392 415.426L366.279 415.313ZM365.736 415.969L363.046 413.258L362.932 413.371L365.622 416.082L365.736 415.969ZM358.702 425.773L362.789 413.679L362.638 413.628L358.55 425.722L358.702 425.773ZM362.688 413.729L363.556 414.026L363.608 413.874L362.739 413.578L362.688 413.729ZM363.506 413.924L359.397 426.018L359.549 426.07L363.658 413.976L363.506 413.924ZM359.499 425.968L358.652 425.672L358.599 425.823L359.447 426.119L359.499 425.968ZM355.656 423.608V416.026H355.496V423.608H355.656ZM355.576 416.106H356.487V415.946H355.576V416.106ZM356.407 416.026V423.608H356.567V416.026H356.407ZM356.487 423.528H355.576V423.688H356.487V423.528ZM365.759 423.629V416.047H365.599V423.629H365.759ZM365.679 416.127H366.589V415.967H365.679V416.127ZM366.509 416.047V423.629H366.669V416.047H366.509ZM366.589 423.549H365.679V423.709H366.589V423.549ZM355.908 424.321L356.543 423.686L356.43 423.573L355.795 424.208L355.908 424.321ZM356.43 423.686L359.12 426.376L359.233 426.263L356.543 423.573L356.43 423.686ZM359.12 426.263L358.485 426.898L358.598 427.011L359.233 426.376L359.12 426.263ZM358.598 426.898L355.908 424.208L355.795 424.321L358.485 427.011L358.598 426.898ZM363.045 426.376L365.735 423.707L365.622 423.594L362.933 426.262L363.045 426.376ZM365.622 423.707L366.258 424.343L366.371 424.229L365.735 423.594L365.622 423.707ZM366.258 424.229L363.568 426.919L363.681 427.032L366.371 424.343L366.258 424.229ZM363.682 426.92L363.046 426.264L362.931 426.375L363.567 427.031L363.682 426.92ZM359.278 427.23V426.319H359.118V427.23H359.278ZM359.198 426.399H362.968V426.239H359.198V426.399ZM362.888 426.319V427.23H363.048V426.319H362.888ZM362.968 427.15H359.198V427.31H362.968V427.15ZM372.745 413.315H372.665V413.395H372.745V413.315ZM372.745 412.404V412.324H372.665V412.404H372.745ZM376.515 412.404H376.595V412.324H376.515V412.404ZM376.515 413.315V413.395H376.595V413.315H376.515ZM369.399 415.369L369.342 415.313L369.286 415.369L369.342 415.426L369.399 415.369ZM372.089 412.679L372.145 412.623L372.089 412.566L372.032 412.623L372.089 412.679ZM372.724 413.315L372.781 413.371L372.837 413.315L372.781 413.258L372.724 413.315ZM370.034 416.005L369.978 416.061L370.034 416.118L370.091 416.061L370.034 416.005ZM376.537 413.315L376.48 413.258L376.424 413.314L376.48 413.371L376.537 413.315ZM377.172 412.679L377.228 412.623L377.172 412.566L377.115 412.623L377.172 412.679ZM379.883 415.369L379.94 415.426L379.996 415.369L379.939 415.312L379.883 415.369ZM379.226 416.026L379.17 416.082L379.226 416.139L379.283 416.082L379.226 416.026ZM372.174 425.747L372.098 425.722L372.072 425.797L372.147 425.823L372.174 425.747ZM376.261 413.654L376.287 413.578L376.211 413.552L376.186 413.628L376.261 413.654ZM377.13 413.95L377.205 413.976L377.231 413.9L377.156 413.874L377.13 413.95ZM373.021 426.044L372.994 426.119L373.071 426.146L373.097 426.07L373.021 426.044ZM369.124 423.608H369.044V423.688H369.124V423.608ZM369.124 416.026V415.946H369.044V416.026H369.124ZM370.034 416.026H370.114V415.946H370.034V416.026ZM370.034 423.608V423.688H370.114V423.608H370.034ZM379.226 423.629H379.146V423.709H379.226V423.629ZM379.226 416.047V415.967H379.146V416.047H379.226ZM380.137 416.047H380.217V415.967H380.137V416.047ZM380.137 423.629V423.709H380.217V423.629H380.137ZM369.399 424.265L369.342 424.208L369.286 424.265L369.342 424.321L369.399 424.265ZM370.034 423.629L370.091 423.573L370.034 423.516L369.978 423.573L370.034 423.629ZM372.724 426.319L372.781 426.376L372.837 426.319L372.781 426.263L372.724 426.319ZM372.089 426.955L372.032 427.011L372.089 427.068L372.145 427.011L372.089 426.955ZM376.537 426.319L376.48 426.262L376.424 426.318L376.479 426.375L376.537 426.319ZM379.226 423.651L379.283 423.594L379.227 423.538L379.17 423.594L379.226 423.651ZM379.862 424.286L379.918 424.343L379.975 424.286L379.918 424.229L379.862 424.286ZM377.172 426.976L377.115 427.031L377.171 427.09L377.229 427.032L377.172 426.976ZM372.745 427.23H372.665V427.31H372.745V427.23ZM372.745 426.319V426.239H372.665V426.319H372.745ZM376.515 426.319H376.595V426.239H376.515V426.319ZM376.515 427.23V427.31H376.595V427.23H376.515ZM372.825 413.315V412.404H372.665V413.315H372.825ZM372.745 412.484H376.515V412.324H372.745V412.484ZM376.435 412.404V413.315H376.595V412.404H376.435ZM376.515 413.235H372.745V413.395H376.515V413.235ZM369.456 415.426L372.145 412.736L372.032 412.623L369.342 415.313L369.456 415.426ZM372.032 412.736L372.668 413.371L372.781 413.258L372.145 412.623L372.032 412.736ZM372.668 413.258L369.978 415.948L370.091 416.061L372.781 413.371L372.668 413.258ZM370.091 415.948L369.456 415.313L369.342 415.426L369.978 416.061L370.091 415.948ZM376.593 413.371L377.229 412.736L377.115 412.623L376.48 413.258L376.593 413.371ZM377.116 412.736L379.827 415.426L379.939 415.312L377.228 412.623L377.116 412.736ZM379.827 415.313L379.17 415.969L379.283 416.082L379.94 415.426L379.827 415.313ZM379.283 415.969L376.593 413.258L376.48 413.371L379.17 416.082L379.283 415.969ZM372.249 425.773L376.337 413.679L376.186 413.628L372.098 425.722L372.249 425.773ZM376.235 413.729L377.104 414.026L377.156 413.874L376.287 413.578L376.235 413.729ZM377.054 413.924L372.945 426.018L373.097 426.07L377.205 413.976L377.054 413.924ZM373.047 425.968L372.2 425.672L372.147 425.823L372.994 426.119L373.047 425.968ZM369.204 423.608V416.026H369.044V423.608H369.204ZM369.124 416.106H370.034V415.946H369.124V416.106ZM369.954 416.026V423.608H370.114V416.026H369.954ZM370.034 423.528H369.124V423.688H370.034V423.528ZM379.306 423.629V416.047H379.146V423.629H379.306ZM379.226 416.127H380.137V415.967H379.226V416.127ZM380.057 416.047V423.629H380.217V416.047H380.057ZM380.137 423.549H379.226V423.709H380.137V423.549ZM369.456 424.321L370.091 423.686L369.978 423.573L369.342 424.208L369.456 424.321ZM369.978 423.686L372.668 426.376L372.781 426.263L370.091 423.573L369.978 423.686ZM372.668 426.263L372.032 426.898L372.145 427.011L372.781 426.376L372.668 426.263ZM372.145 426.898L369.456 424.208L369.342 424.321L372.032 427.011L372.145 426.898ZM376.593 426.376L379.283 423.707L379.17 423.594L376.48 426.262L376.593 426.376ZM379.17 423.707L379.805 424.343L379.918 424.229L379.283 423.594L379.17 423.707ZM379.805 424.229L377.115 426.919L377.229 427.032L379.918 424.343L379.805 424.229ZM377.23 426.92L376.594 426.264L376.479 426.375L377.115 427.031L377.23 426.92ZM372.825 427.23V426.319H372.665V427.23H372.825ZM372.745 426.399H376.515V426.239H372.745V426.399ZM376.435 426.319V427.23H376.595V426.319H376.435ZM376.515 427.15H372.745V427.31H376.515V427.15ZM383.074 415.814L383.004 415.775L382.964 415.847L383.037 415.885L383.074 415.814ZM385.044 412.235L385.082 412.165L385.012 412.126L384.973 412.196L385.044 412.235ZM385.848 412.679L385.918 412.718L385.957 412.648L385.887 412.609L385.848 412.679ZM383.879 416.238L383.841 416.308L383.911 416.345L383.949 416.276L383.879 416.238ZM385.277 414.649H385.197V414.729H385.277V414.649ZM385.277 413.738V413.658H385.197V413.738H385.277ZM391.864 413.738H391.944V413.658H391.864V413.738ZM391.864 414.649V414.729H391.944V414.649H391.864ZM383.307 416.936L383.247 416.884L383.194 416.944L383.254 416.996L383.307 416.936ZM383.9 416.259L383.953 416.199L383.893 416.146L383.84 416.206L383.9 416.259ZM391.715 423.163L391.775 423.217L391.829 423.157L391.768 423.103L391.715 423.163ZM391.101 423.841L391.048 423.901L391.107 423.954L391.16 423.895L391.101 423.841ZM383.264 426.298H383.184V426.378H383.264V426.298ZM383.264 422.57V422.49H383.184V422.57H383.264ZM384.175 422.57H384.255V422.49H384.175V422.57ZM384.175 426.298V426.378H384.255V426.298H384.175ZM388.644 426.298L388.588 426.241L388.531 426.298L388.588 426.355L388.644 426.298ZM391.101 423.884L391.158 423.827L391.102 423.771L391.045 423.826L391.101 423.884ZM391.736 424.519L391.793 424.576L391.85 424.519L391.793 424.462L391.736 424.519ZM389.301 426.955L389.244 427.011L389.301 427.068L389.357 427.011L389.301 426.955ZM384.196 427.23H384.116V427.31H384.196V427.23ZM384.196 426.319V426.239H384.116V426.319H384.196ZM388.623 426.319H388.703V426.239H388.623V426.319ZM388.623 427.23V427.31H388.703V427.23H388.623ZM383.144 415.853L385.114 412.273L384.973 412.196L383.004 415.775L383.144 415.853ZM385.005 412.305L385.81 412.749L385.887 412.609L385.082 412.165L385.005 412.305ZM385.778 412.641L383.809 416.199L383.949 416.276L385.918 412.718L385.778 412.641ZM383.916 416.167L383.111 415.743L383.037 415.885L383.841 416.308L383.916 416.167ZM385.357 414.649V413.738H385.197V414.649H385.357ZM385.277 413.818H391.864V413.658H385.277V413.818ZM391.784 413.738V414.649H391.944V413.738H391.784ZM391.864 414.569H385.277V414.729H391.864V414.569ZM383.367 416.989L383.96 416.311L383.84 416.206L383.247 416.884L383.367 416.989ZM383.847 416.319L391.662 423.223L391.768 423.103L383.953 416.199L383.847 416.319ZM391.656 423.11L391.042 423.787L391.16 423.895L391.775 423.217L391.656 423.11ZM391.154 423.781L383.36 416.877L383.254 416.996L391.048 423.901L391.154 423.781ZM383.344 426.298V422.57H383.184V426.298H383.344ZM383.264 422.65H384.175V422.49H383.264V422.65ZM384.095 422.57V426.298H384.255V422.57H384.095ZM384.175 426.218H383.264V426.378H384.175V426.218ZM388.7 426.355L391.157 423.941L391.045 423.826L388.588 426.241L388.7 426.355ZM391.044 423.94L391.68 424.576L391.793 424.462L391.158 423.827L391.044 423.94ZM391.68 424.462L389.244 426.898L389.357 427.011L391.793 424.576L391.68 424.462ZM389.357 426.898L388.701 426.241L388.588 426.355L389.244 427.011L389.357 426.898ZM384.276 427.23V426.319H384.116V427.23H384.276ZM384.196 426.399H388.623V426.239H384.196V426.399ZM388.543 426.319V427.23H388.703V426.319H388.543ZM388.623 427.15H384.196V427.31H388.623V427.15Z" fill="#1B1B19"/>
<path d="M333.094 413.315V412.404H340.782V413.315H333.094ZM340.824 413.336L341.523 412.743L344.954 416.809L344.256 417.381L340.824 413.336ZM334.957 426.086V413.548H335.868V426.086H334.957ZM344.277 422.422V417.424H345.187V422.422H344.277ZM340.824 426.319L344.277 422.443L344.954 423.058L341.502 426.912L340.824 426.319ZM333.094 427.23V426.319H340.803V427.23H333.094ZM359.198 413.315V412.404H362.968V413.315H359.198ZM355.851 415.369L358.541 412.679L359.176 413.315L356.487 416.005L355.851 415.369ZM362.989 413.315L363.624 412.679L366.335 415.369L365.679 416.026L362.989 413.315ZM358.626 425.747L362.714 413.654L363.582 413.95L359.473 426.044L358.626 425.747ZM355.576 423.608V416.026H356.487V423.608H355.576ZM365.679 423.629V416.047H366.589V423.629H365.679ZM355.851 424.265L356.487 423.629L359.176 426.319L358.541 426.955L355.851 424.265ZM362.989 426.319L365.679 423.651L366.314 424.286L363.624 426.976L362.989 426.319ZM359.198 427.23V426.319H362.968V427.23H359.198ZM372.745 413.315V412.404H376.515V413.315H372.745ZM369.399 415.369L372.089 412.679L372.724 413.315L370.034 416.005L369.399 415.369ZM376.537 413.315L377.172 412.679L379.883 415.369L379.226 416.026L376.537 413.315ZM372.174 425.747L376.261 413.654L377.13 413.95L373.021 426.044L372.174 425.747ZM369.124 423.608V416.026H370.034V423.608H369.124ZM379.226 423.629V416.047H380.137V423.629H379.226ZM369.399 424.265L370.034 423.629L372.724 426.319L372.089 426.955L369.399 424.265ZM376.537 426.319L379.226 423.651L379.862 424.286L377.172 426.976L376.537 426.319ZM372.745 427.23V426.319H376.515V427.23H372.745ZM383.074 415.814L385.044 412.235L385.848 412.679L383.879 416.238L383.074 415.814ZM385.277 414.649V413.738H391.864V414.649H385.277ZM383.307 416.936L383.9 416.259L391.715 423.163L391.101 423.841L383.307 416.936ZM383.264 426.298V422.57H384.175V426.298H383.264ZM388.644 426.298L391.101 423.884L391.736 424.519L389.301 426.955L388.644 426.298ZM384.196 427.23V426.319H388.623V427.23H384.196Z" fill="#1B1B19"/>
<path d="M336.608 522.939H336.528V523.019H336.608V522.939ZM336.608 516.642V516.562H336.528V516.642H336.608ZM337.822 516.642H337.902V516.562H337.822V516.642ZM337.822 522.939V523.019H337.902V522.939H337.822ZM330.197 522.177L330.121 522.153L330.097 522.228L330.172 522.253L330.197 522.177ZM330.564 521.019L330.589 520.943L330.512 520.918L330.488 520.995L330.564 521.019ZM336.551 522.968L336.627 522.992L336.651 522.916L336.576 522.892L336.551 522.968ZM336.184 524.126L336.159 524.202L336.236 524.227L336.26 524.15L336.184 524.126ZM337.907 522.968L337.882 522.892L337.806 522.916L337.83 522.992L337.907 522.968ZM343.865 521.019L343.941 520.993L343.916 520.919L343.84 520.943L343.865 521.019ZM344.261 522.177L344.285 522.253L344.363 522.228L344.336 522.151L344.261 522.177ZM338.274 524.126L338.198 524.15L338.222 524.227L338.299 524.202L338.274 524.126ZM337.285 524.916L337.237 524.853L337.175 524.9L337.221 524.963L337.285 524.916ZM338.246 524.182L338.31 524.135L338.262 524.069L338.197 524.118L338.246 524.182ZM341.945 529.293L341.992 529.359L342.057 529.312L342.01 529.247L341.945 529.293ZM340.957 529.999L340.892 530.046L340.938 530.111L341.003 530.065L340.957 529.999ZM332.513 529.293L332.448 529.247L332.401 529.312L332.466 529.359L332.513 529.293ZM336.184 524.21L336.231 524.145L336.166 524.099L336.119 524.163L336.184 524.21ZM337.172 524.916L337.237 524.963L337.284 524.898L337.219 524.851L337.172 524.916ZM333.501 529.999L333.455 530.065L333.52 530.111L333.566 530.046L333.501 529.999ZM336.688 522.939V516.642H336.528V522.939H336.688ZM336.608 516.722H337.822V516.562H336.608V516.722ZM337.742 516.642V522.939H337.902V516.642H337.742ZM337.822 522.859H336.608V523.019H337.822V522.859ZM330.273 522.201L330.641 521.043L330.488 520.995L330.121 522.153L330.273 522.201ZM330.54 521.095L336.526 523.044L336.576 522.892L330.589 520.943L330.54 521.095ZM336.475 522.943L336.108 524.101L336.26 524.15L336.627 522.992L336.475 522.943ZM336.209 524.049L330.222 522.101L330.172 522.253L336.159 524.202L336.209 524.049ZM337.932 523.044L343.89 521.095L343.84 520.943L337.882 522.892L337.932 523.044ZM343.79 521.045L344.185 522.203L344.336 522.151L343.941 520.993L343.79 521.045ZM344.236 522.101L338.249 524.049L338.299 524.202L344.285 522.253L344.236 522.101ZM338.35 524.101L337.983 522.943L337.83 522.992L338.198 524.15L338.35 524.101ZM337.334 524.98L338.294 524.246L338.197 524.118L337.237 524.853L337.334 524.98ZM338.181 524.229L341.88 529.34L342.01 529.247L338.31 524.135L338.181 524.229ZM341.899 529.228L340.91 529.934L341.003 530.065L341.992 529.359L341.899 529.228ZM341.021 529.953L337.35 524.869L337.221 524.963L340.892 530.046L341.021 529.953ZM332.578 529.34L336.249 524.257L336.119 524.163L332.448 529.247L332.578 529.34ZM336.138 524.275L337.126 524.981L337.219 524.851L336.231 524.145L336.138 524.275ZM337.108 524.869L333.436 529.953L333.566 530.046L337.237 524.963L337.108 524.869ZM333.548 529.934L332.559 529.228L332.466 529.359L333.455 530.065L333.548 529.934Z" fill="#1B1B19"/>
<path d="M336.608 522.939V516.642H337.822V522.939H336.608ZM330.197 522.177L330.564 521.019L336.551 522.968L336.184 524.126L330.197 522.177ZM337.907 522.968L343.865 521.019L344.261 522.177L338.274 524.126L337.907 522.968ZM337.285 524.916L338.246 524.182L341.945 529.293L340.957 529.999L337.285 524.916ZM332.513 529.293L336.184 524.21L337.172 524.916L333.501 529.999L332.513 529.293Z" fill="#1B1B19"/>
<path d="M732.062 738.48L741.325 720.406L742.398 720.971L733.136 739.016L732.062 738.48ZM742.652 720.943L743.726 720.406L752.904 738.48L751.802 739.016L742.652 720.943ZM733.305 740.4V739.186H751.746V740.4H733.305Z" fill="#1B1B19"/>
<path d="M668.02 263.49L676.011 256.656L676.802 257.56L668.81 264.394L668.02 263.49ZM673.413 280.321V260.497H674.628V280.321H673.413ZM675.56 280.321V260.497H676.774V280.321H675.56ZM667.935 265.269L668.81 264.422L673.357 269.138L672.481 269.957L667.935 265.269Z" fill="#1B1B19"/>
<path d="M446.224 561.435H446.144V561.515H446.224V561.435ZM446.224 560.524V560.444H446.144V560.524H446.224ZM453.912 560.524H453.992V560.444H453.912V560.524ZM453.912 561.435V561.515H453.992V561.435H453.912ZM453.954 561.456L453.903 561.395L453.842 561.447L453.893 561.508L453.954 561.456ZM454.653 560.863L454.714 560.811L454.663 560.75L454.601 560.802L454.653 560.863ZM458.084 564.93L458.135 564.991L458.198 564.94L458.146 564.878L458.084 564.93ZM457.385 565.501L457.324 565.553L457.375 565.613L457.436 565.563L457.385 565.501ZM448.087 574.206H448.007V574.286H448.087V574.206ZM448.087 561.668V561.588H448.007V561.668H448.087ZM448.998 561.668H449.078V561.588H448.998V561.668ZM448.998 574.206V574.286H449.078V574.206H448.998ZM457.407 570.542H457.327V570.622H457.407V570.542ZM457.407 565.544V565.464H457.327V565.544H457.407ZM458.317 565.544H458.397V565.464H458.317V565.544ZM458.317 570.542V570.622H458.397V570.542H458.317ZM453.954 574.439L453.895 574.386L453.841 574.446L453.902 574.5L453.954 574.439ZM457.407 570.563L457.46 570.504L457.401 570.45L457.347 570.51L457.407 570.563ZM458.084 571.178L458.144 571.231L458.197 571.172L458.138 571.118L458.084 571.178ZM454.632 575.032L454.579 575.093L454.639 575.145L454.692 575.086L454.632 575.032ZM446.224 575.35H446.144V575.43H446.224V575.35ZM446.224 574.439V574.359H446.144V574.439H446.224ZM453.933 574.439H454.013V574.359H453.933V574.439ZM453.933 575.35V575.43H454.013V575.35H453.933ZM446.304 561.435V560.524H446.144V561.435H446.304ZM446.224 560.604H453.912V560.444H446.224V560.604ZM453.832 560.524V561.435H453.992V560.524H453.832ZM453.912 561.355H446.224V561.515H453.912V561.355ZM454.006 561.517L454.705 560.924L454.601 560.802L453.903 561.395L454.006 561.517ZM454.592 560.915L458.023 564.981L458.146 564.878L454.714 560.811L454.592 560.915ZM458.034 564.868L457.335 565.439L457.436 565.563L458.135 564.991L458.034 564.868ZM457.446 565.45L454.015 561.404L453.893 561.508L457.324 565.553L457.446 565.45ZM448.167 574.206V561.668H448.007V574.206H448.167ZM448.087 561.748H448.998V561.588H448.087V561.748ZM448.918 561.668V574.206H449.078V561.668H448.918ZM448.998 574.126H448.087V574.286H448.998V574.126ZM457.487 570.542V565.544H457.327V570.542H457.487ZM457.407 565.624H458.317V565.464H457.407V565.624ZM458.237 565.544V570.542H458.397V565.544H458.237ZM458.317 570.462H457.407V570.622H458.317V570.462ZM454.014 574.493L457.466 570.617L457.347 570.51L453.895 574.386L454.014 574.493ZM457.353 570.623L458.031 571.237L458.138 571.118L457.46 570.504L457.353 570.623ZM458.025 571.124L454.572 574.979L454.692 575.086L458.144 571.231L458.025 571.124ZM454.685 574.972L454.007 574.379L453.902 574.5L454.579 575.093L454.685 574.972ZM446.304 575.35V574.439H446.144V575.35H446.304ZM446.224 574.519H453.933V574.359H446.224V574.519ZM453.853 574.439V575.35H454.013V574.439H453.853ZM453.933 575.27H446.224V575.43H453.933V575.27ZM472.328 561.435H472.248V561.515H472.328V561.435ZM472.328 560.524V560.444H472.248V560.524H472.328ZM476.098 560.524H476.178V560.444H476.098V560.524ZM476.098 561.435V561.515H476.178V561.435H476.098ZM468.981 563.489L468.925 563.433L468.868 563.489L468.925 563.546L468.981 563.489ZM471.671 560.799L471.728 560.743L471.671 560.686L471.614 560.743L471.671 560.799ZM472.306 561.435L472.363 561.491L472.42 561.435L472.363 561.378L472.306 561.435ZM469.617 564.125L469.56 564.181L469.617 564.238L469.673 564.181L469.617 564.125ZM476.119 561.435L476.062 561.378L476.006 561.435L476.062 561.491L476.119 561.435ZM476.754 560.799L476.811 560.743L476.754 560.687L476.698 560.743L476.754 560.799ZM479.465 563.489L479.522 563.546L479.579 563.489L479.522 563.433L479.465 563.489ZM478.809 564.146L478.752 564.202L478.808 564.259L478.865 564.202L478.809 564.146ZM471.756 573.867L471.68 573.842L471.655 573.917L471.729 573.943L471.756 573.867ZM475.843 561.774L475.869 561.698L475.793 561.672L475.768 561.748L475.843 561.774ZM476.712 562.07L476.788 562.096L476.813 562.02L476.738 561.995L476.712 562.07ZM472.603 574.164L472.577 574.24L472.653 574.266L472.679 574.19L472.603 574.164ZM468.706 571.728H468.626V571.808H468.706V571.728ZM468.706 564.146V564.066H468.626V564.146H468.706ZM469.617 564.146H469.697V564.066H469.617V564.146ZM469.617 571.728V571.808H469.697V571.728H469.617ZM478.809 571.749H478.729V571.829H478.809V571.749ZM478.809 564.167V564.087H478.729V564.167H478.809ZM479.719 564.167H479.799V564.087H479.719V564.167ZM479.719 571.749V571.829H479.799V571.749H479.719ZM468.981 572.385L468.925 572.328L468.868 572.385L468.925 572.441L468.981 572.385ZM469.617 571.749L469.673 571.693L469.617 571.636L469.56 571.693L469.617 571.749ZM472.306 574.439L472.363 574.496L472.42 574.439L472.363 574.383L472.306 574.439ZM471.671 575.075L471.614 575.131L471.671 575.188L471.728 575.131L471.671 575.075ZM476.119 574.439L476.062 574.383L476.006 574.438L476.061 574.495L476.119 574.439ZM478.809 571.771L478.865 571.714L478.809 571.658L478.752 571.714L478.809 571.771ZM479.444 572.406L479.501 572.463L479.557 572.406L479.501 572.35L479.444 572.406ZM476.754 575.096L476.697 575.152L476.753 575.21L476.811 575.153L476.754 575.096ZM472.328 575.35H472.248V575.43H472.328V575.35ZM472.328 574.439V574.359H472.248V574.439H472.328ZM476.098 574.439H476.178V574.359H476.098V574.439ZM476.098 575.35V575.43H476.178V575.35H476.098ZM472.408 561.435V560.524H472.248V561.435H472.408ZM472.328 560.604H476.098V560.444H472.328V560.604ZM476.018 560.524V561.435H476.178V560.524H476.018ZM476.098 561.355H472.328V561.515H476.098V561.355ZM469.038 563.546L471.728 560.856L471.614 560.743L468.925 563.433L469.038 563.546ZM471.614 560.856L472.25 561.491L472.363 561.378L471.728 560.743L471.614 560.856ZM472.25 561.378L469.56 564.068L469.673 564.181L472.363 561.491L472.25 561.378ZM469.673 564.068L469.038 563.433L468.925 563.546L469.56 564.181L469.673 564.068ZM476.175 561.491L476.811 560.856L476.698 560.743L476.062 561.378L476.175 561.491ZM476.698 560.856L479.409 563.546L479.522 563.433L476.811 560.743L476.698 560.856ZM479.409 563.433L478.752 564.089L478.865 564.202L479.522 563.546L479.409 563.433ZM478.865 564.09L476.176 561.378L476.062 561.491L478.752 564.202L478.865 564.09ZM471.832 573.893L475.919 561.799L475.768 561.748L471.68 573.842L471.832 573.893ZM475.818 561.849L476.686 562.146L476.738 561.995L475.869 561.698L475.818 561.849ZM476.636 562.045L472.527 574.138L472.679 574.19L476.788 562.096L476.636 562.045ZM472.629 574.089L471.782 573.792L471.729 573.943L472.577 574.24L472.629 574.089ZM468.786 571.728V564.146H468.626V571.728H468.786ZM468.706 564.226H469.617V564.066H468.706V564.226ZM469.537 564.146V571.728H469.697V564.146H469.537ZM469.617 571.648H468.706V571.808H469.617V571.648ZM478.889 571.749V564.167H478.729V571.749H478.889ZM478.809 564.247H479.719V564.087H478.809V564.247ZM479.639 564.167V571.749H479.799V564.167H479.639ZM479.719 571.669H478.809V571.829H479.719V571.669ZM469.038 572.441L469.673 571.806L469.56 571.693L468.925 572.328L469.038 572.441ZM469.56 571.806L472.25 574.496L472.363 574.383L469.673 571.693L469.56 571.806ZM472.25 574.383L471.614 575.018L471.728 575.131L472.363 574.496L472.25 574.383ZM471.728 575.018L469.038 572.328L468.925 572.441L471.614 575.131L471.728 575.018ZM476.175 574.496L478.865 571.827L478.752 571.714L476.062 574.383L476.175 574.496ZM478.752 571.827L479.388 572.463L479.501 572.35L478.865 571.714L478.752 571.827ZM479.388 572.35L476.698 575.039L476.811 575.153L479.501 572.463L479.388 572.35ZM476.812 575.04L476.176 574.384L476.061 574.495L476.697 575.152L476.812 575.04ZM472.408 575.35V574.439H472.248V575.35H472.408ZM472.328 574.519H476.098V574.359H472.328V574.519ZM476.018 574.439V575.35H476.178V574.439H476.018ZM476.098 575.27H472.328V575.43H476.098V575.27ZM485.875 561.435H485.795V561.515H485.875V561.435ZM485.875 560.524V560.444H485.795V560.524H485.875ZM489.645 560.524H489.725V560.444H489.645V560.524ZM489.645 561.435V561.515H489.725V561.435H489.645ZM482.529 563.489L482.472 563.433L482.416 563.489L482.472 563.546L482.529 563.489ZM485.219 560.799L485.275 560.743L485.219 560.686L485.162 560.743L485.219 560.799ZM485.854 561.435L485.911 561.491L485.967 561.435L485.911 561.378L485.854 561.435ZM483.164 564.125L483.108 564.181L483.164 564.238L483.221 564.181L483.164 564.125ZM489.667 561.435L489.61 561.378L489.554 561.435L489.61 561.491L489.667 561.435ZM490.302 560.799L490.358 560.743L490.302 560.687L490.245 560.743L490.302 560.799ZM493.013 563.489L493.07 563.546L493.126 563.489L493.069 563.433L493.013 563.489ZM492.356 564.146L492.3 564.202L492.356 564.259L492.413 564.202L492.356 564.146ZM485.304 573.867L485.228 573.842L485.202 573.917L485.277 573.943L485.304 573.867ZM489.391 561.774L489.417 561.698L489.341 561.672L489.315 561.748L489.391 561.774ZM490.26 562.07L490.335 562.096L490.361 562.02L490.285 561.995L490.26 562.07ZM486.151 574.164L486.124 574.24L486.2 574.266L486.226 574.19L486.151 574.164ZM482.254 571.728H482.174V571.808H482.254V571.728ZM482.254 564.146V564.066H482.174V564.146H482.254ZM483.164 564.146H483.244V564.066H483.164V564.146ZM483.164 571.728V571.808H483.244V571.728H483.164ZM492.356 571.749H492.276V571.829H492.356V571.749ZM492.356 564.167V564.087H492.276V564.167H492.356ZM493.267 564.167H493.347V564.087H493.267V564.167ZM493.267 571.749V571.829H493.347V571.749H493.267ZM482.529 572.385L482.472 572.328L482.416 572.385L482.472 572.441L482.529 572.385ZM483.164 571.749L483.221 571.693L483.164 571.636L483.108 571.693L483.164 571.749ZM485.854 574.439L485.911 574.496L485.967 574.439L485.911 574.383L485.854 574.439ZM485.219 575.075L485.162 575.131L485.219 575.188L485.275 575.131L485.219 575.075ZM489.667 574.439L489.61 574.383L489.554 574.438L489.609 574.495L489.667 574.439ZM492.356 571.771L492.413 571.714L492.357 571.658L492.3 571.714L492.356 571.771ZM492.992 572.406L493.048 572.463L493.105 572.406L493.048 572.35L492.992 572.406ZM490.302 575.096L490.244 575.152L490.301 575.21L490.359 575.153L490.302 575.096ZM485.875 575.35H485.795V575.43H485.875V575.35ZM485.875 574.439V574.359H485.795V574.439H485.875ZM489.645 574.439H489.725V574.359H489.645V574.439ZM489.645 575.35V575.43H489.725V575.35H489.645ZM485.955 561.435V560.524H485.795V561.435H485.955ZM485.875 560.604H489.645V560.444H485.875V560.604ZM489.565 560.524V561.435H489.725V560.524H489.565ZM489.645 561.355H485.875V561.515H489.645V561.355ZM482.585 563.546L485.275 560.856L485.162 560.743L482.472 563.433L482.585 563.546ZM485.162 560.856L485.798 561.491L485.911 561.378L485.275 560.743L485.162 560.856ZM485.798 561.378L483.108 564.068L483.221 564.181L485.911 561.491L485.798 561.378ZM483.221 564.068L482.585 563.433L482.472 563.546L483.108 564.181L483.221 564.068ZM489.723 561.491L490.359 560.856L490.245 560.743L489.61 561.378L489.723 561.491ZM490.246 560.856L492.957 563.546L493.069 563.433L490.358 560.743L490.246 560.856ZM492.956 563.433L492.3 564.089L492.413 564.202L493.07 563.546L492.956 563.433ZM492.413 564.09L489.723 561.378L489.61 561.491L492.3 564.202L492.413 564.09ZM485.379 573.893L489.467 561.799L489.315 561.748L485.228 573.842L485.379 573.893ZM489.365 561.849L490.234 562.146L490.285 561.995L489.417 561.698L489.365 561.849ZM490.184 562.045L486.075 574.138L486.226 574.19L490.335 562.096L490.184 562.045ZM486.177 574.089L485.33 573.792L485.277 573.943L486.124 574.24L486.177 574.089ZM482.334 571.728V564.146H482.174V571.728H482.334ZM482.254 564.226H483.164V564.066H482.254V564.226ZM483.084 564.146V571.728H483.244V564.146H483.084ZM483.164 571.648H482.254V571.808H483.164V571.648ZM492.436 571.749V564.167H492.276V571.749H492.436ZM492.356 564.247H493.267V564.087H492.356V564.247ZM493.187 564.167V571.749H493.347V564.167H493.187ZM493.267 571.669H492.356V571.829H493.267V571.669ZM482.585 572.441L483.221 571.806L483.108 571.693L482.472 572.328L482.585 572.441ZM483.108 571.806L485.798 574.496L485.911 574.383L483.221 571.693L483.108 571.806ZM485.798 574.383L485.162 575.018L485.275 575.131L485.911 574.496L485.798 574.383ZM485.275 575.018L482.585 572.328L482.472 572.441L485.162 575.131L485.275 575.018ZM489.723 574.496L492.413 571.827L492.3 571.714L489.61 574.383L489.723 574.496ZM492.3 571.827L492.935 572.463L493.048 572.35L492.413 571.714L492.3 571.827ZM492.935 572.35L490.245 575.039L490.359 575.153L493.048 572.463L492.935 572.35ZM490.359 575.04L489.724 574.384L489.609 574.495L490.244 575.152L490.359 575.04ZM485.955 575.35V574.439H485.795V575.35H485.955ZM485.875 574.519H489.645V574.359H485.875V574.519ZM489.565 574.439V575.35H489.725V574.439H489.565ZM489.645 575.27H485.875V575.43H489.645V575.27ZM495.378 563.955L495.321 563.899L495.264 563.956L495.322 564.013L495.378 563.955ZM499.084 560.249L499.142 560.193L499.085 560.135L499.028 560.192L499.084 560.249ZM499.72 560.905L499.776 560.962L499.832 560.906L499.777 560.85L499.72 560.905ZM496.034 564.591L495.979 564.648L496.035 564.703L496.091 564.647L496.034 564.591ZM499.762 560.905L499.706 560.848L499.648 560.905L499.706 560.962L499.762 560.905ZM500.419 560.27L500.475 560.213L500.419 560.158L500.363 560.212L500.419 560.27ZM504.104 563.955L504.16 564.012L504.217 563.955L504.16 563.899L504.104 563.955ZM503.468 564.591L503.412 564.647L503.469 564.704L503.525 564.647L503.468 564.591ZM495.441 573.804L495.381 573.751L495.329 573.81L495.388 573.863L495.441 573.804ZM503.468 564.633L503.522 564.574L503.462 564.519L503.408 564.58L503.468 564.633ZM504.146 565.247L504.206 565.3L504.258 565.241L504.2 565.188L504.146 565.247ZM496.119 574.418L496.065 574.477L496.126 574.532L496.179 574.471L496.119 574.418ZM495.526 575.35H495.446V575.43H495.526V575.35ZM495.526 574.439V574.359H495.446V574.439H495.526ZM504.549 574.439H504.629V574.359H504.549V574.439ZM504.549 575.35V575.43H504.629V575.35H504.549ZM495.434 564.012L499.141 560.305L499.028 560.192L495.321 563.899L495.434 564.012ZM499.027 560.304L499.662 560.961L499.777 560.85L499.142 560.193L499.027 560.304ZM499.663 560.849L495.978 564.534L496.091 564.647L499.776 560.962L499.663 560.849ZM496.09 564.533L495.433 563.898L495.322 564.013L495.979 564.648L496.09 564.533ZM499.818 560.963L500.474 560.327L500.363 560.212L499.706 560.848L499.818 560.963ZM500.362 560.327L504.047 564.012L504.16 563.899L500.475 560.213L500.362 560.327ZM504.047 563.899L503.412 564.534L503.525 564.647L504.16 564.012L504.047 563.899ZM503.525 564.534L499.818 560.849L499.706 560.962L503.412 564.647L503.525 564.534ZM495.501 573.857L503.529 564.686L503.408 564.58L495.381 573.751L495.501 573.857ZM503.415 564.692L504.093 565.307L504.2 565.188L503.522 564.574L503.415 564.692ZM504.086 565.195L496.059 574.365L496.179 574.471L504.206 565.3L504.086 565.195ZM496.173 574.359L495.495 573.745L495.388 573.863L496.065 574.477L496.173 574.359ZM495.606 575.35V574.439H495.446V575.35H495.606ZM495.526 574.519H504.549V574.359H495.526V574.519ZM504.469 574.439V575.35H504.629V574.439H504.469ZM504.549 575.27H495.526V575.43H504.549V575.27Z" fill="#1B1B19"/>
<path d="M446.224 561.435V560.524H453.912V561.435H446.224ZM453.954 561.456L454.653 560.863L458.084 564.93L457.385 565.501L453.954 561.456ZM448.087 574.206V561.668H448.998V574.206H448.087ZM457.407 570.542V565.544H458.317V570.542H457.407ZM453.954 574.439L457.407 570.563L458.084 571.178L454.632 575.032L453.954 574.439ZM446.224 575.35V574.439H453.933V575.35H446.224ZM472.328 561.435V560.524H476.098V561.435H472.328ZM468.981 563.489L471.671 560.799L472.306 561.435L469.617 564.125L468.981 563.489ZM476.119 561.435L476.754 560.799L479.465 563.489L478.809 564.146L476.119 561.435ZM471.756 573.867L475.843 561.774L476.712 562.07L472.603 574.164L471.756 573.867ZM468.706 571.728V564.146H469.617V571.728H468.706ZM478.809 571.749V564.167H479.719V571.749H478.809ZM468.981 572.385L469.617 571.749L472.306 574.439L471.671 575.075L468.981 572.385ZM476.119 574.439L478.809 571.771L479.444 572.406L476.754 575.096L476.119 574.439ZM472.328 575.35V574.439H476.098V575.35H472.328ZM485.875 561.435V560.524H489.645V561.435H485.875ZM482.529 563.489L485.219 560.799L485.854 561.435L483.164 564.125L482.529 563.489ZM489.667 561.435L490.302 560.799L493.013 563.489L492.356 564.146L489.667 561.435ZM485.304 573.867L489.391 561.774L490.26 562.07L486.151 574.164L485.304 573.867ZM482.254 571.728V564.146H483.164V571.728H482.254ZM492.356 571.749V564.167H493.267V571.749H492.356ZM482.529 572.385L483.164 571.749L485.854 574.439L485.219 575.075L482.529 572.385ZM489.667 574.439L492.356 571.771L492.992 572.406L490.302 575.096L489.667 574.439ZM485.875 575.35V574.439H489.645V575.35H485.875ZM495.378 563.955L499.084 560.249L499.72 560.905L496.034 564.591L495.378 563.955ZM499.762 560.905L500.419 560.27L504.104 563.955L503.468 564.591L499.762 560.905ZM495.441 573.804L503.468 564.633L504.146 565.247L496.119 574.418L495.441 573.804ZM495.526 575.35V574.439H504.549V575.35H495.526Z" fill="#1B1B19"/>
<path d="M593.164 414.466L593.147 414.388L593.069 414.405L593.085 414.483L593.164 414.466ZM594.053 414.276L594.131 414.259L594.115 414.181L594.036 414.198L594.053 414.276ZM597.23 429.059L597.247 429.138L597.325 429.121L597.308 429.043L597.23 429.059ZM596.341 429.25L596.262 429.267L596.279 429.345L596.357 429.328L596.341 429.25ZM597.251 429.059L597.173 429.043L597.156 429.121L597.235 429.138L597.251 429.059ZM600.428 414.276L600.445 414.198L600.367 414.181L600.35 414.259L600.428 414.276ZM601.318 414.466L601.396 414.483L601.413 414.405L601.335 414.388L601.318 414.466ZM598.141 429.25L598.124 429.328L598.202 429.345L598.219 429.267L598.141 429.25ZM601.36 414.466L601.343 414.388L601.265 414.405L601.282 414.483L601.36 414.466ZM602.25 414.276L602.328 414.259L602.311 414.181L602.233 414.198L602.25 414.276ZM605.406 429.059L605.422 429.138L605.501 429.121L605.484 429.043L605.406 429.059ZM604.516 429.25L604.438 429.267L604.455 429.345L604.533 429.328L604.516 429.25ZM605.427 429.059L605.349 429.043L605.332 429.121L605.41 429.138L605.427 429.059ZM608.583 414.276L608.599 414.198L608.521 414.181L608.504 414.259L608.583 414.276ZM609.472 414.466L609.55 414.483L609.567 414.405L609.489 414.388L609.472 414.466ZM606.316 429.25L606.3 429.328L606.378 429.345L606.395 429.267L606.316 429.25ZM593.18 414.545L594.07 414.354L594.036 414.198L593.147 414.388L593.18 414.545ZM593.975 414.293L597.152 429.076L597.308 429.043L594.131 414.259L593.975 414.293ZM597.213 428.981L596.324 429.172L596.357 429.328L597.247 429.138L597.213 428.981ZM596.419 429.233L593.242 414.45L593.085 414.483L596.262 429.267L596.419 429.233ZM597.33 429.076L600.507 414.293L600.35 414.259L597.173 429.043L597.33 429.076ZM600.412 414.354L601.301 414.545L601.335 414.388L600.445 414.198L600.412 414.354ZM601.24 414.45L598.063 429.233L598.219 429.267L601.396 414.483L601.24 414.45ZM598.158 429.172L597.268 428.981L597.235 429.138L598.124 429.328L598.158 429.172ZM601.377 414.545L602.267 414.354L602.233 414.198L601.343 414.388L601.377 414.545ZM602.172 414.292L605.327 429.076L605.484 429.043L602.328 414.259L602.172 414.292ZM605.389 428.981L604.499 429.172L604.533 429.328L605.422 429.138L605.389 428.981ZM604.594 429.233L601.438 414.45L601.282 414.483L604.438 429.267L604.594 429.233ZM605.505 429.076L608.661 414.292L608.504 414.259L605.349 429.043L605.505 429.076ZM608.566 414.354L609.455 414.545L609.489 414.388L608.599 414.198L608.566 414.354ZM609.394 414.45L606.238 429.233L606.395 429.267L609.55 414.483L609.394 414.45ZM606.333 429.172L605.444 428.981L605.41 429.138L606.3 429.328L606.333 429.172ZM611.835 417.982L611.777 417.927L611.722 417.984L611.78 418.04L611.835 417.982ZM615.605 414.043L615.661 413.985L615.603 413.929L615.547 413.987L615.605 414.043ZM616.262 414.678L616.32 414.733L616.375 414.676L616.318 414.621L616.262 414.678ZM612.492 418.618L612.436 418.675L612.494 418.731L612.55 418.673L612.492 418.618ZM616.283 414.678L616.227 414.621L616.17 414.676L616.225 414.734L616.283 414.678ZM616.94 414.043L616.997 413.987L616.942 413.929L616.884 413.985L616.94 414.043ZM620.71 417.982L620.766 418.039L620.822 417.983L620.767 417.927L620.71 417.982ZM620.074 418.618L620.017 418.673L620.073 418.732L620.131 418.674L620.074 418.618ZM611.581 428.318H611.501V428.398H611.581V428.318ZM611.581 418.639V418.559H611.501V418.639H611.581ZM612.492 418.639H612.572V418.559H612.492V418.639ZM612.492 428.318V428.398H612.572V428.318H612.492ZM612.513 429.25H612.433V429.33H612.513V429.25ZM612.513 428.339V428.259H612.433V428.339H612.513ZM621.049 428.339H621.129V428.259H621.049V428.339ZM621.049 429.25V429.33H621.129V429.25H621.049ZM611.893 418.038L615.663 414.098L615.547 413.987L611.777 417.927L611.893 418.038ZM615.55 414.1L616.206 414.736L616.318 414.621L615.661 413.985L615.55 414.1ZM616.204 414.623L612.434 418.562L612.55 418.673L616.32 414.733L616.204 414.623ZM612.547 418.56L611.891 417.925L611.78 418.04L612.436 418.675L612.547 418.56ZM616.339 414.736L616.995 414.1L616.884 413.985L616.227 414.621L616.339 414.736ZM616.882 414.098L620.652 418.038L620.767 417.927L616.997 413.987L616.882 414.098ZM620.653 417.926L620.018 418.561L620.131 418.674L620.766 418.039L620.653 417.926ZM620.132 418.562L616.341 414.623L616.225 414.734L620.017 418.673L620.132 418.562ZM611.661 428.318V418.639H611.501V428.318H611.661ZM611.581 418.719H612.492V418.559H611.581V418.719ZM612.412 418.639V428.318H612.572V418.639H612.412ZM612.492 428.238H611.581V428.398H612.492V428.238ZM612.593 429.25V428.339H612.433V429.25H612.593ZM612.513 428.419H621.049V428.259H612.513V428.419ZM620.969 428.339V429.25H621.129V428.339H620.969ZM621.049 429.17H612.513V429.33H621.049V429.17Z" fill="#1B1B19"/>
<path d="M593.164 414.466L594.053 414.276L597.23 429.059L596.341 429.25L593.164 414.466ZM597.251 429.059L600.428 414.276L601.318 414.466L598.141 429.25L597.251 429.059ZM601.36 414.466L602.25 414.276L605.406 429.059L604.516 429.25L601.36 414.466ZM605.427 429.059L608.583 414.276L609.472 414.466L606.316 429.25L605.427 429.059ZM611.835 417.982L615.605 414.043L616.262 414.678L612.492 418.618L611.835 417.982ZM616.283 414.678L616.94 414.043L620.71 417.982L620.074 418.618L616.283 414.678ZM611.581 428.318V418.639H612.492V428.318H611.581ZM612.513 429.25V428.339H621.049V429.25H612.513Z" fill="#1B1B19"/>
<path d="M590.01 677.4V664.43H590.92V677.4H590.01ZM590.94 664.41V663.5H598.67V664.41H590.94ZM590.94 678.33V677.42H598.67V678.33H590.94ZM591.38 671.68V670.77H597.23V671.68H591.38ZM600.15 665.54L601.27 663.44L602.08 663.88L600.96 665.98L600.15 665.54ZM601.02 666.9V665.99H603.22V666.9H601.02ZM601.63 669.87H602.54V678.34H601.63V669.87ZM602.16 663.9L602.97 663.46L604.09 665.56L603.28 666L602.16 663.9ZM605.46 678.03L608.45 669.51L609.32 669.81L606.33 678.35L605.46 678.03V678.03ZM605.71 670.76L607.68 669.45L608.19 670.19L606.22 671.5L605.71 670.76ZM608.1 673.37L613.12 669.51L613.67 670.23L608.65 674.09L608.1 673.37ZM610.52 678.03L613.15 670.68L614 671L611.39 678.35L610.52 678.03ZM611.69 677.61L613.41 676.4L613.92 677.14L612.2 678.35L611.69 677.61ZM615.9 677.42V675.32H616.81V677.42H615.9ZM616.71 670.75V666.58H617.6V670.75H616.71ZM616.84 678.36V677.45H623.75V678.36H616.84ZM616.86 675.29V674.4H623.75V675.29H616.86ZM617.6 666.56V665.65H622.88V666.56H617.6ZM617.6 671.69V670.78H622.88V671.69H617.6ZM618 673.62L621.09 671.71L621.56 672.49L618.47 674.38L618 673.62ZM622.89 665.65V664.74H626V665.65H622.89ZM622.89 670.76V666.59H623.8V670.76H622.89ZM623.76 677.43V675.31H624.67V677.43H623.76ZM626.74 670.78V669.89H635.11V670.78H626.74ZM627.65 677.92V674.21H628.56V677.92H627.65ZM628.24 673.3L634.68 670.8L635.02 671.65L628.58 674.15L628.24 673.3ZM628.62 677.96L634.47 672.22L635.11 672.86L629.26 678.62L628.62 677.96ZM635.12 678.36V670.8H636.01V678.36H635.12ZM638.34 678.36V670.82H639.25V678.36H638.34ZM639.29 670.8V669.89H644.84V670.8H639.29ZM644.86 678.36V670.82H645.77V678.36H644.86ZM647.89 677.43V675.33H648.8V677.43H647.89ZM648.7 670.76V666.59H649.59V670.76H648.7ZM648.83 678.37V677.46H655.74V678.37H648.83ZM648.85 675.3V674.41H655.74V675.3H648.85ZM649.59 666.57V665.66H654.87V666.57H649.59ZM649.59 671.7V670.79H654.87V671.7H649.59ZM649.99 673.63L653.08 671.72L653.55 672.5L650.46 674.39L649.99 673.63ZM654.88 665.66V664.75H657.99V665.66H654.88ZM654.88 670.77V666.6H655.79V670.77H654.88ZM655.75 677.44V675.32H656.66V677.44H655.75Z" stroke="#1B1B19" stroke-width="0.16"/>
<path d="M590.01 677.4V664.43H590.92V677.4H590.01ZM590.94 664.41V663.5H598.67V664.41H590.94ZM590.94 678.33V677.42H598.67V678.33H590.94ZM591.38 671.68V670.77H597.23V671.68H591.38ZM600.15 665.54L601.27 663.44L602.08 663.88L600.96 665.98L600.15 665.54ZM601.02 666.9V665.99H603.22V666.9H601.02ZM601.63 669.87H602.54V678.34H601.63V669.87ZM602.16 663.9L602.97 663.46L604.09 665.56L603.28 666L602.16 663.9ZM605.46 678.03L608.45 669.51L609.32 669.81L606.33 678.35L605.46 678.03V678.03ZM605.71 670.76L607.68 669.45L608.19 670.19L606.22 671.5L605.71 670.76ZM608.1 673.37L613.12 669.51L613.67 670.23L608.65 674.09L608.1 673.37ZM610.52 678.03L613.15 670.68L614 671L611.39 678.35L610.52 678.03ZM611.69 677.61L613.41 676.4L613.92 677.14L612.2 678.35L611.69 677.61ZM615.9 677.42V675.32H616.81V677.42H615.9ZM616.71 670.75V666.58H617.6V670.75H616.71ZM616.84 678.36V677.45H623.75V678.36H616.84ZM616.86 675.29V674.4H623.75V675.29H616.86ZM617.6 666.56V665.65H622.88V666.56H617.6ZM617.6 671.69V670.78H622.88V671.69H617.6ZM618 673.62L621.09 671.71L621.56 672.49L618.47 674.38L618 673.62ZM622.89 665.65V664.74H626V665.65H622.89ZM622.89 670.76V666.59H623.8V670.76H622.89ZM623.76 677.43V675.31H624.67V677.43H623.76ZM626.74 670.78V669.89H635.11V670.78H626.74ZM627.65 677.92V674.21H628.56V677.92H627.65ZM628.24 673.3L634.68 670.8L635.02 671.65L628.58 674.15L628.24 673.3ZM628.62 677.96L634.47 672.22L635.11 672.86L629.26 678.62L628.62 677.96ZM635.12 678.36V670.8H636.01V678.36H635.12ZM638.34 678.36V670.82H639.25V678.36H638.34ZM639.29 670.8V669.89H644.84V670.8H639.29ZM644.86 678.36V670.82H645.77V678.36H644.86ZM647.89 677.43V675.33H648.8V677.43H647.89ZM648.7 670.76V666.59H649.59V670.76H648.7ZM648.83 678.37V677.46H655.74V678.37H648.83ZM648.85 675.3V674.41H655.74V675.3H648.85ZM649.59 666.57V665.66H654.87V666.57H649.59ZM649.59 671.7V670.79H654.87V671.7H649.59ZM649.99 673.63L653.08 671.72L653.55 672.5L650.46 674.39L649.99 673.63ZM654.88 665.66V664.75H657.99V665.66H654.88ZM654.88 670.77V666.6H655.79V670.77H654.88ZM655.75 677.44V675.32H656.66V677.44H655.75Z" fill="#1B1B19"/>
<path d="M714.53 484.68V469.85H715.44V484.68H714.53ZM715.95 477.79V476.88H721.82V477.79H715.95ZM722.39 484.68V469.85H723.28V484.68H722.39ZM725.92 479.79L729.69 476.04L730.33 476.7L726.58 480.43L725.92 479.79V479.79ZM725.94 481.19L726.58 480.55L730.33 484.3L729.67 484.94L725.94 481.19ZM726.32 472.74L727.44 470.64L728.25 471.08L727.13 473.18L726.32 472.74ZM727.19 474.1V473.19H729.39V474.1H727.19ZM728.33 471.09L729.14 470.65L730.26 472.75L729.45 473.19L728.33 471.09ZM730.45 484.29L734.22 480.54L734.86 481.18L731.11 484.95L730.45 484.29V484.29ZM730.47 476.71L731.13 476.05L734.86 479.78L734.22 480.42L730.47 476.71ZM730.53 472.75L731.65 470.65L732.46 471.09L731.34 473.19L730.53 472.75ZM731.4 474.11V473.2H733.6V474.11H731.4ZM732.54 471.1L733.35 470.66L734.47 472.76L733.66 473.2L732.54 471.1ZM737.07 484.7V477.16H737.98V484.7H737.07ZM738 477.14V476.23H742.72V477.14H738ZM743.46 484.7V483.79H751.59V484.7H743.46ZM744.14 477.14V476.23H752.27V477.14H744.14ZM744.39 477.97L744.98 477.29L751.29 482.93L750.68 483.61L744.39 477.97ZM753.52 482.27L754.33 481.87L755.24 483.78L754.43 484.18L753.52 482.27ZM753.67 481.21L755.2 479.58L755.86 480.19L754.33 481.84L753.67 481.2V481.21ZM755.26 484.71V483.8H760.22V484.71H755.26ZM761.91 477.42L755.79 475.89L756.02 475L762.14 476.53L761.91 477.42ZM755.87 480.2V479.29H760.21V480.2H755.87ZM760.42 484.71V477.32H761.33V484.71H760.42ZM763.83 477.13V476.24H772.2V477.13H763.83ZM764.74 484.27V480.56H765.65V484.27H764.74ZM765.33 479.65L771.77 477.15L772.11 478L765.67 480.5L765.33 479.65ZM765.71 484.31L771.56 478.57L772.2 479.21L766.35 484.97L765.71 484.31V484.31ZM772.21 484.71V477.15H773.1V484.71H772.21ZM775.64 483.78V469.88H776.55V483.78H775.64ZM776.57 484.71V483.8H779.07V484.71H776.57Z" stroke="#1B1B19" stroke-width="0.16"/>
<path d="M714.53 484.68V469.85H715.44V484.68H714.53ZM715.95 477.79V476.88H721.82V477.79H715.95ZM722.39 484.68V469.85H723.28V484.68H722.39ZM725.92 479.79L729.69 476.04L730.33 476.7L726.58 480.43L725.92 479.79V479.79ZM725.94 481.19L726.58 480.55L730.33 484.3L729.67 484.94L725.94 481.19ZM726.32 472.74L727.44 470.64L728.25 471.08L727.13 473.18L726.32 472.74ZM727.19 474.1V473.19H729.39V474.1H727.19ZM728.33 471.09L729.14 470.65L730.26 472.75L729.45 473.19L728.33 471.09ZM730.45 484.29L734.22 480.54L734.86 481.18L731.11 484.95L730.45 484.29V484.29ZM730.47 476.71L731.13 476.05L734.86 479.78L734.22 480.42L730.47 476.71ZM730.53 472.75L731.65 470.65L732.46 471.09L731.34 473.19L730.53 472.75ZM731.4 474.11V473.2H733.6V474.11H731.4ZM732.54 471.1L733.35 470.66L734.47 472.76L733.66 473.2L732.54 471.1ZM737.07 484.7V477.16H737.98V484.7H737.07ZM738 477.14V476.23H742.72V477.14H738ZM743.46 484.7V483.79H751.59V484.7H743.46ZM744.14 477.14V476.23H752.27V477.14H744.14ZM744.39 477.97L744.98 477.29L751.29 482.93L750.68 483.61L744.39 477.97ZM753.52 482.27L754.33 481.87L755.24 483.78L754.43 484.18L753.52 482.27ZM753.67 481.21L755.2 479.58L755.86 480.19L754.33 481.84L753.67 481.2V481.21ZM755.26 484.71V483.8H760.22V484.71H755.26ZM761.91 477.42L755.79 475.89L756.02 475L762.14 476.53L761.91 477.42ZM755.87 480.2V479.29H760.21V480.2H755.87ZM760.42 484.71V477.32H761.33V484.71H760.42ZM763.83 477.13V476.24H772.2V477.13H763.83ZM764.74 484.27V480.56H765.65V484.27H764.74ZM765.33 479.65L771.77 477.15L772.11 478L765.67 480.5L765.33 479.65ZM765.71 484.31L771.56 478.57L772.2 479.21L766.35 484.97L765.71 484.31V484.31ZM772.21 484.71V477.15H773.1V484.71H772.21ZM775.64 483.78V469.88H776.55V483.78H775.64ZM776.57 484.71V483.8H779.07V484.71H776.57Z" fill="#1B1B19"/>
<path d="M961.43 301.66L962.09 302.27L955.14 309.88L954.46 309.27L961.43 301.66ZM954.71 300.73H969.54V301.64H954.71V300.73ZM963.18 312.42V313.33H954.71V312.42H963.18ZM954.71 317.16H955.62V324.47H954.71V317.16ZM954.71 329.51H966.45V330.42H954.71V329.51ZM954.71 339.89H955.62V347.2H954.71V339.89ZM954.71 352.03H963.18V352.94H954.71V352.03ZM954.71 359.83H961.93V360.74H954.71V359.83ZM954.71 363.81H969.54V364.72H954.71V363.81ZM954.71 369.64H962.25V370.55H954.71V369.64ZM954.71 373.79H955.62V381.1H954.71V373.79ZM954.71 386.86H955.62V392.66H954.71V386.86ZM954.71 396.83H955.62V404.14H954.71V396.83ZM954.71 408.97H963.18V409.88H954.71V408.97ZM954.71 417.57H955.62V424.09H954.71V417.57ZM954.71 424.35H962.04V425.26H954.71V424.35ZM954.71 429.07H955.62V431.57H954.71V429.07ZM954.71 434.09H955.62V436.59H954.71V434.09ZM954.71 438.66H955.62V445.97H954.71V438.66ZM954.71 451.49H955.62V458.8H954.71V451.49ZM955.64 316.26H958.88V317.15H955.64V316.26ZM955.64 338.98H958.88V339.87H955.64V338.98ZM955.64 372.87H958.88V373.76H955.64V372.87ZM955.64 385.92H963.18V386.83H955.64V385.92ZM955.64 392.68H963.18V393.59H955.64V392.68ZM955.64 395.92H958.88V396.81H955.64V395.92ZM955.83 416.65L960.09 417.65L959.9 418.54L955.64 417.54L955.83 416.65ZM955.64 428.13H969.54V429.04H955.64V428.13ZM955.64 433.15H969.54V434.06H955.64V433.15ZM955.64 437.75H958.88V438.64H955.64V437.75ZM955.64 450.58H958.88V451.47H955.64V450.58ZM961.36 274.69L962 275.33L957.19 280.14L956.55 279.48L961.36 274.69V274.69ZM961.36 289.52L962 288.88L957.19 284.07L956.55 284.71L961.36 289.52ZM961.36 471.88L962 472.52L957.19 477.33L956.55 476.67L961.36 471.88V471.88ZM961.36 486.71L962 486.07L957.19 481.26L956.55 481.9L961.36 486.71ZM959.9 418.55L960.71 418.93L958.13 424.29L957.32 423.89L959.9 418.55V418.55ZM958.78 317.49H959.69V326.85H958.78V317.49ZM958.78 340.21H959.69V349.57H958.78V340.21ZM958.78 374.1H959.69V383.46H958.78V374.1ZM958.78 397.14H959.69V406.5H958.78V397.14ZM958.78 438.97H959.69V448.33H958.78V438.97ZM958.78 451.8H959.69V461.16H958.78V451.8ZM959.52 316.05L963.33 319.69L962.72 320.35L958.91 316.71L959.52 316.05ZM959.52 338.77L963.33 342.41L962.72 343.07L958.91 339.43L959.52 338.77ZM959.52 372.66L963.33 376.3L962.72 376.96L958.91 373.32L959.52 372.66ZM959.52 395.7L963.33 399.34L962.72 400L958.91 396.36L959.52 395.7ZM959.52 437.53L963.33 441.17L962.72 441.83L958.91 438.19L959.52 437.53ZM959.52 450.36L963.33 454L962.72 454.66L958.91 451.02L959.52 450.36ZM960.43 352.98L963.35 360.95L962.48 361.27L959.56 353.3L960.43 352.98ZM960.26 330.55L966.36 336.88L965.7 337.49L959.6 331.18L960.26 330.54V330.55ZM962.72 320.36L963.55 320.74L960.48 327.39L959.65 327.01L962.72 320.36ZM962.72 343.08L963.55 343.46L960.48 350.11L959.65 349.73L962.72 343.08ZM962.72 376.97L963.55 377.35L960.48 384L959.65 383.62L962.72 376.97ZM962.72 400.01L963.55 400.39L960.48 407.04L959.65 406.66L962.72 400.01ZM962.72 441.84L963.55 442.22L960.48 448.87L959.65 448.49L962.72 441.84ZM962.72 454.67L963.55 455.05L960.48 461.7L959.65 461.32L962.72 454.67ZM962.28 413.29L963.02 413.82L961.75 415.58L961.03 415.05L962.28 413.29ZM961.62 275.82H962.53V288.32H961.62V275.82ZM961.62 473.01H962.53V485.51H961.62V473.01ZM962.79 301.65L969.72 309.23L969.06 309.84L962.11 302.26L962.79 301.65V301.65ZM962.81 274.67L967.7 279.58L967.06 280.22L962.15 275.33L962.81 274.67ZM962.81 289.5L967.7 284.61L967.06 283.97L962.15 288.86L962.81 289.5ZM962.81 471.86L967.7 476.77L967.06 477.41L962.15 472.52L962.81 471.86ZM962.81 486.69L967.7 481.8L967.06 481.16L962.15 486.05L962.81 486.69ZM962.28 365.06H963.19V369.59H962.28V365.06ZM962.28 410.15H963.19V413.26H962.28V410.15ZM962.28 419.41H963.19V425.79H962.28V419.41ZM966.16 311.8H967.07V314H966.16V311.8ZM966.52 330.5H967.43V336.71H966.52V330.5ZM967.52 310.93L969.62 312.05L969.18 312.86L967.08 311.74L967.52 310.93ZM969.17 312.94L969.61 313.75L967.51 314.87L967.07 314.06L969.17 312.94Z" stroke="#1B1B19" stroke-width="0.16"/>
<path d="M961.43 301.66L962.09 302.27L955.14 309.88L954.46 309.27L961.43 301.66ZM954.71 300.73H969.54V301.64H954.71V300.73ZM963.18 312.42V313.33H954.71V312.42H963.18ZM954.71 317.16H955.62V324.47H954.71V317.16ZM954.71 329.51H966.45V330.42H954.71V329.51ZM954.71 339.89H955.62V347.2H954.71V339.89ZM954.71 352.03H963.18V352.94H954.71V352.03ZM954.71 359.83H961.93V360.74H954.71V359.83ZM954.71 363.81H969.54V364.72H954.71V363.81ZM954.71 369.64H962.25V370.55H954.71V369.64ZM954.71 373.79H955.62V381.1H954.71V373.79ZM954.71 386.86H955.62V392.66H954.71V386.86ZM954.71 396.83H955.62V404.14H954.71V396.83ZM954.71 408.97H963.18V409.88H954.71V408.97ZM954.71 417.57H955.62V424.09H954.71V417.57ZM954.71 424.35H962.04V425.26H954.71V424.35ZM954.71 429.07H955.62V431.57H954.71V429.07ZM954.71 434.09H955.62V436.59H954.71V434.09ZM954.71 438.66H955.62V445.97H954.71V438.66ZM954.71 451.49H955.62V458.8H954.71V451.49ZM955.64 316.26H958.88V317.15H955.64V316.26ZM955.64 338.98H958.88V339.87H955.64V338.98ZM955.64 372.87H958.88V373.76H955.64V372.87ZM955.64 385.92H963.18V386.83H955.64V385.92ZM955.64 392.68H963.18V393.59H955.64V392.68ZM955.64 395.92H958.88V396.81H955.64V395.92ZM955.83 416.65L960.09 417.65L959.9 418.54L955.64 417.54L955.83 416.65ZM955.64 428.13H969.54V429.04H955.64V428.13ZM955.64 433.15H969.54V434.06H955.64V433.15ZM955.64 437.75H958.88V438.64H955.64V437.75ZM955.64 450.58H958.88V451.47H955.64V450.58ZM961.36 274.69L962 275.33L957.19 280.14L956.55 279.48L961.36 274.69V274.69ZM961.36 289.52L962 288.88L957.19 284.07L956.55 284.71L961.36 289.52ZM961.36 471.88L962 472.52L957.19 477.33L956.55 476.67L961.36 471.88V471.88ZM961.36 486.71L962 486.07L957.19 481.26L956.55 481.9L961.36 486.71ZM959.9 418.55L960.71 418.93L958.13 424.29L957.32 423.89L959.9 418.55V418.55ZM958.78 317.49H959.69V326.85H958.78V317.49ZM958.78 340.21H959.69V349.57H958.78V340.21ZM958.78 374.1H959.69V383.46H958.78V374.1ZM958.78 397.14H959.69V406.5H958.78V397.14ZM958.78 438.97H959.69V448.33H958.78V438.97ZM958.78 451.8H959.69V461.16H958.78V451.8ZM959.52 316.05L963.33 319.69L962.72 320.35L958.91 316.71L959.52 316.05ZM959.52 338.77L963.33 342.41L962.72 343.07L958.91 339.43L959.52 338.77ZM959.52 372.66L963.33 376.3L962.72 376.96L958.91 373.32L959.52 372.66ZM959.52 395.7L963.33 399.34L962.72 400L958.91 396.36L959.52 395.7ZM959.52 437.53L963.33 441.17L962.72 441.83L958.91 438.19L959.52 437.53ZM959.52 450.36L963.33 454L962.72 454.66L958.91 451.02L959.52 450.36ZM960.43 352.98L963.35 360.95L962.48 361.27L959.56 353.3L960.43 352.98ZM960.26 330.55L966.36 336.88L965.7 337.49L959.6 331.18L960.26 330.54V330.55ZM962.72 320.36L963.55 320.74L960.48 327.39L959.65 327.01L962.72 320.36ZM962.72 343.08L963.55 343.46L960.48 350.11L959.65 349.73L962.72 343.08ZM962.72 376.97L963.55 377.35L960.48 384L959.65 383.62L962.72 376.97ZM962.72 400.01L963.55 400.39L960.48 407.04L959.65 406.66L962.72 400.01ZM962.72 441.84L963.55 442.22L960.48 448.87L959.65 448.49L962.72 441.84ZM962.72 454.67L963.55 455.05L960.48 461.7L959.65 461.32L962.72 454.67ZM962.28 413.29L963.02 413.82L961.75 415.58L961.03 415.05L962.28 413.29ZM961.62 275.82H962.53V288.32H961.62V275.82ZM961.62 473.01H962.53V485.51H961.62V473.01ZM962.79 301.65L969.72 309.23L969.06 309.84L962.11 302.26L962.79 301.65V301.65ZM962.81 274.67L967.7 279.58L967.06 280.22L962.15 275.33L962.81 274.67ZM962.81 289.5L967.7 284.61L967.06 283.97L962.15 288.86L962.81 289.5ZM962.81 471.86L967.7 476.77L967.06 477.41L962.15 472.52L962.81 471.86ZM962.81 486.69L967.7 481.8L967.06 481.16L962.15 486.05L962.81 486.69ZM962.28 365.06H963.19V369.59H962.28V365.06ZM962.28 410.15H963.19V413.26H962.28V410.15ZM962.28 419.41H963.19V425.79H962.28V419.41ZM966.16 311.8H967.07V314H966.16V311.8ZM966.52 330.5H967.43V336.71H966.52V330.5ZM967.52 310.93L969.62 312.05L969.18 312.86L967.08 311.74L967.52 310.93ZM969.17 312.94L969.61 313.75L967.51 314.87L967.07 314.06L969.17 312.94Z" fill="#1B1B19"/>
<path d="M494.87 317.33V302.5H495.78V317.33H494.87ZM496.29 310.44V309.53H502.16V310.44H496.29ZM502.73 317.33V302.5H503.62V317.33H502.73ZM506.16 314.51V311.63H507.07V314.51H506.16ZM506.44 315.21L507.08 314.55L509.01 316.41L508.37 317.07L506.44 315.21ZM506.48 310.95L508.39 309.11L509.03 309.77L507.1 311.61L506.49 310.95H506.48ZM509.04 309.74V308.85H511.67V309.74H509.04ZM509.04 317.32V316.41H511.67V317.32H509.04ZM511.71 309.76L512.32 309.1L514.27 310.94L513.63 311.6L511.7 309.76H511.71ZM511.71 316.43L513.64 314.52L514.28 315.18L512.35 317.09L511.71 316.43ZM513.66 314.5V311.62H514.57V314.5H513.66ZM515.73 309.75V308.84H526.11V309.75H515.73ZM519.16 308.14L525.79 302.23L526.38 302.91L519.75 308.82L519.16 308.14ZM519.27 317.31V309.98H520.18V317.31H519.27ZM526.41 305.66V302.93H527.32V305.66H526.41Z" stroke="#1B1B19" stroke-width="0.16"/>
<path d="M494.87 317.33V302.5H495.78V317.33H494.87ZM496.29 310.44V309.53H502.16V310.44H496.29ZM502.73 317.33V302.5H503.62V317.33H502.73ZM506.16 314.51V311.63H507.07V314.51H506.16ZM506.44 315.21L507.08 314.55L509.01 316.41L508.37 317.07L506.44 315.21ZM506.48 310.95L508.39 309.11L509.03 309.77L507.1 311.61L506.49 310.95H506.48ZM509.04 309.74V308.85H511.67V309.74H509.04ZM509.04 317.32V316.41H511.67V317.32H509.04ZM511.71 309.76L512.32 309.1L514.27 310.94L513.63 311.6L511.7 309.76H511.71ZM511.71 316.43L513.64 314.52L514.28 315.18L512.35 317.09L511.71 316.43ZM513.66 314.5V311.62H514.57V314.5H513.66ZM515.73 309.75V308.84H526.11V309.75H515.73ZM519.16 308.14L525.79 302.23L526.38 302.91L519.75 308.82L519.16 308.14ZM519.27 317.31V309.98H520.18V317.31H519.27ZM526.41 305.66V302.93H527.32V305.66H526.41Z" fill="#1B1B19"/>
<path d="M714.52 81.96C719.13 81.96 723.91 82.36 728.47 81.71C731.15 81.33 733.83 81.3 736.53 81.3" stroke="#1B1B19" stroke-width="2.35"/>
<path d="M715.19 72.9502C715.63 71.9002 722.93 72.6202 723.71 72.6202C726.21 72.6202 728.71 72.6202 731.22 72.6202H735.87" stroke="#1B1B19" stroke-width="2.35"/>
<path d="M714.52 63.28H723.03C726.44 63.28 730.27 62.84 733.67 63.36C734.99 63.56 736.18 63.62 737.53 63.62" stroke="#1B1B19" stroke-width="2.35"/>
<path d="M715.19 53.9401H730.81C731.58 53.9401 732.35 53.9101 733.11 53.9401C734 53.9601 735 54.4101 735.86 54.2801" stroke="#1B1B19" stroke-width="2.35"/>
<path d="M715.19 44.6001H735.53" stroke="#1B1B19" stroke-width="2.35"/>
<path d="M677.72 87.5202H688.73C690.33 87.5202 691.88 87.4902 693.4 87.9302C694.12 88.1302 694.63 88.2002 695.4 88.1902C696.17 88.1902 696.68 88.4302 697.4 88.5202" stroke="#1B1B19" stroke-width="2.35"/>
<path d="M699.86 52.8201C699.86 56.3901 699.87 59.9601 699.86 63.5301C699.86 65.2201 699.92 66.7401 700.12 68.4101C700.3 69.8801 700.09 71.3501 700.27 72.8201C700.65 75.9701 700.53 79.1601 700.53 82.3501C700.53 83.2401 700.43 84.2201 700.61 85.0801C700.74 85.7201 700.95 86.0501 700.87 86.7701" stroke="#1B1B19" stroke-width="2.35"/>
<path d="M673.85 86.7002C673.85 83.7002 673.85 80.7102 673.85 77.7102C673.85 76.1702 674.12 74.8502 674.2 73.3502C674.27 71.9902 674.18 70.5802 674.18 69.2202C674.18 66.5902 674.2 63.9602 674.18 61.3302C674.18 60.1002 674.42 59.1002 674.52 57.9302C674.6 56.9702 674.52 55.9202 674.52 54.9402" stroke="#1B1B19" stroke-width="2.35"/>
<path d="M677.18 53.4901C677.79 53.4901 678.46 53.4201 679.06 53.4601C679.54 53.4801 680 53.6001 680.43 53.8201C681.29 54.1601 681.88 54.1401 682.82 54.2301C685.07 54.4501 687.27 54.4801 689.53 54.4801H696.86" stroke="#1B1B19" stroke-width="2.35"/>
<path d="M679.69 47.7301C681.03 47.7301 682.37 47.7301 683.71 47.7301C684.98 47.7301 686.14 47.4901 687.39 47.3901C688.05 47.3401 688.41 47.1701 689.03 47.0601C689.64 46.9501 690.41 47.0601 691.04 47.0601" stroke="#1B1B19" stroke-width="2.35"/>
<path d="M693.86 23.8101V38.8201" stroke="#1B1B19" stroke-width="2.35"/>
<path d="M687.52 35.1499C688.12 35.1299 688.98 36.1499 689.45 36.4899C690.2 37.0399 690.82 37.6699 691.44 38.2999C691.79 38.6599 691.95 39.0699 692.26 39.4099C692.5 39.6699 692.93 39.8199 693.21 40.0599C693.45 40.2699 693.59 40.5499 693.85 40.7399C694.04 40.8799 694.38 40.8599 694.59 41.0199C695.92 40.0599 696.99 39.2599 698.11 38.0499C698.84 37.2599 700.17 36.4499 700.53 35.4699" stroke="#1B1B19" stroke-width="2.35"/>
<path d="M677.52 40.8198V26.7898C677.52 25.6798 677.4 24.7598 677.85 23.8098" stroke="#1B1B19" stroke-width="2.35"/>
<path d="M671.51 28.8099C671.79 28.2399 672.57 27.9399 673.01 27.5199C673.73 26.8299 674.12 25.9299 674.77 25.1899C675.17 24.7299 675.7 24.1599 676.18 23.7799C676.58 23.4699 677.19 23.2699 677.48 22.9199C679 24.1499 680.87 24.9599 682.21 26.3999C682.56 26.7799 682.76 27.0999 683.19 27.3999C683.62 27.6999 684.21 27.7999 684.19 28.4799" stroke="#1B1B19" stroke-width="2.35"/>
<path d="M837.19 507.15C811.28 507.15 784.96 508.47 759.74 504.2C752.93 503.05 744.8 504.27 737.86 504.27H709.72C706.88 504.27 697.67 505.79 695.28 504.01C692.29 501.79 695.59 494.02 696.1 490.11C697.12 482.32 697.51 472.32 696.45 464.38C695.46 456.94 692.87 447.48 695.27 439.87C696.86 441.97 696.79 445.85 699.01 446.88C702.63 432.78 698.06 415.53 696.75 401.4C695.52 388.14 696.43 374.36 696.43 361.03C696.43 352.28 696.48 343.52 696.43 334.77C696.39 327.01 698 320.17 698.97 312.57C700.24 302.63 700.73 292.12 700.73 282.07C700.73 260.47 701.79 238.55 700.76 216.98C700.5 211.55 699.35 206.35 699.3 200.87C699.24 195.46 699.92 189.7 699.29 184.32C698.65 178.88 698.81 172.46 697.54 166.86C691.25 170.65 708.89 171.06 710.78 171.06C718.8 171.06 726.34 172.29 734.11 172.49C756.74 173.07 779.43 172.3 802.06 172.49C812.79 172.58 823.61 171.06 834.55 171.06H867.03C882.58 171.06 899.09 169.53 914.53 171.18C916.94 187.07 911.72 203.45 913.63 219.57C915.24 233.16 917.62 245.34 917.62 259.02C917.62 265.17 917.68 271.32 917.62 277.47C917.61 278.7 917.1 281.89 917.51 283.14C917.95 284.47 920.05 285.52 920.25 286.22C922.05 292.51 920.49 301.33 920.49 307.92C920.49 318.89 920.52 329.86 920.46 340.84C920.36 357.89 923.31 374.68 923.36 391.82C923.4 405.64 919.56 418.43 917.94 431.69C916.69 441.95 916.14 451.87 912.24 461.53C910.88 464.88 909.87 473.95 906.74 475.45C908.08 477.2 907.28 478.56 907.54 481.16C908.02 485.98 909.29 490.36 910.16 495.1C910.96 499.43 912.72 501.35 909.03 502.89C903.58 505.17 891.98 502.82 886.03 502.82" stroke="#1B1B19" stroke-width="2.35"/>
<path d="M644.84 634.89C667.6 634.89 690.9 636.32 713.43 633.77C734.6 631.38 756.23 634.78 777.32 631.94C794.09 629.68 813.3 632.01 830.21 632.01H854.71C862.81 632.01 869.73 633.7 877.36 634.56C884.09 635.32 890.97 635.74 897.61 636.35C899.37 636.51 904.49 637.11 905.9 636.07C907.68 634.75 908.37 628.18 908.71 626.23C911 613.02 910.46 599.6 910.46 586.04C910.46 576.91 911.86 566.46 910.49 557.46C909.5 550.95 907.56 545.13 907.59 538.33C907.64 525.91 906.15 514.82 906.15 502.75" stroke="#1B1B19" stroke-width="2.35"/>
<path d="M657.67 585.29C657.67 602.12 658.57 618.68 658.57 635.53" stroke="#1B1B19" stroke-width="2.35"/>
<path d="M752.53 93.71V193.01" stroke="#1B1B19" stroke-width="2.35"/>
<path d="M659.28 97.6799V272.32C659.28 284.63 659.17 296.95 659.28 309.27C659.45 329.18 656.02 349.13 656.2 369.03C656.4 391.12 656.24 413.21 656.24 435.3" stroke="#1B1B19" stroke-width="2.35"/>
<path d="M284.94 624.42H249.56C239.84 624.42 232.81 626.82 223.06 628.3C214.14 629.65 204.19 628.54 195.18 628.54C185.51 628.54 175.52 629.16 165.88 628.49C162.78 615.88 163.4 601.69 162.97 588.83C162.4 571.58 161.62 554.46 161.49 537.13C161.41 525.67 164.38 513.43 162.65 502.11C161.65 495.55 160.13 490.18 160.15 483.46C160.21 465.32 160.26 447.18 160.15 429.04C160.12 423.23 161.35 417.8 161.55 412.08C161.64 409.31 161.15 406.35 161.52 403.61C162.21 398.58 161.33 399.95 166.15 400.56C172.28 401.34 177.22 399.89 183.06 399.46C205.91 397.75 228.63 392.84 251.66 396.45C279.66 400.83 308.78 399.49 337.85 399.49C364.7 399.49 391.55 399.43 418.41 399.49C438.03 399.53 457.47 396.56 477.04 399.19C490.34 400.98 504.73 399.5 518.15 399.5C521.55 399.5 525.4 398.97 528.76 399.37C535.52 400.18 541.09 405.07 547.2 406.48C554.04 408.05 561.73 404.32 568.16 402.55C574.9 400.7 582.11 400.49 589.01 399.8C616.11 397.09 644.38 399.5 671.63 399.5" stroke="#1B1B19" stroke-width="2.35"/>
<path d="M297.77 531.38C298.02 531.43 298.27 531.48 298.52 531.53C299.24 534.5 300.28 542.91 297.13 544.69C295.29 545.73 291 544.85 288.93 544.85H264.19C261.11 544.85 256.65 544.07 253.72 544.99C252.46 552.48 253.65 561.07 253.65 568.7V620.8C253.65 622.65 253.59 624.52 253.65 626.37C253.72 628.3 254.57 630.06 254.55 631.94" stroke="#1B1B19" stroke-width="2.35"/>
<path d="M297.6 510.92C297.35 510.92 297.1 510.93 296.85 510.94C295.86 507.43 296.77 503.04 296.65 499.39C297.75 502.34 303.35 501.16 305.8 501.06C307.84 500.97 308.98 500.52 310.91 499.9C312.83 499.27 314.57 499.55 316.44 499.12C317.2 495.25 316.99 491.03 317.73 487.03C318.62 482.24 318.39 477.47 318.39 472.59C318.39 467.71 318.42 462.37 318.39 457.26C318.35 450.88 319.37 444.6 319.31 438.21C319.23 428.64 319.29 419.07 319.29 409.5C319.29 406.17 319.18 402.82 319.29 399.5C319.36 397.45 320.66 395.25 320.19 393.29" stroke="#1B1B19" stroke-width="2.35"/>
<path d="M661.07 460.65C661.07 464.77 661.09 468.9 661.07 473.02C661.06 477.92 662 482.56 661.96 487.36C661.92 491.83 663.39 495.51 662.76 500.02C654.58 501.46 645.23 500.16 636.84 500.16C627.84 500.16 618.82 499.76 609.92 500.86C599.62 502.13 588 501.43 577.6 501.07C576.48 496.23 576.6 490.04 576.55 485.02C576.49 479.63 576.57 474.22 576.57 468.83C576.57 459.31 576.55 449.79 576.57 440.28C576.57 435.75 576.64 431.84 575.42 427.52C574.14 422.97 574.81 417.97 574.77 413.28C574.72 406.79 576.57 400.71 576.57 394.23" stroke="#1B1B19" stroke-width="2.35"/>
<path d="M375.73 501.04C394.65 501.04 413.61 501.4 432.53 501.11C437.39 501.04 441.83 499.17 446.63 499.07C449.82 499 453.03 499.09 456.22 499.09H531.8C542 499.09 552.2 499.12 562.4 499.09C566.1 499.08 569.35 499.77 572.97 500.12C574.75 500.29 577.8 499.08 578.54 501.05" stroke="#1B1B19" stroke-width="2.35"/>
<path d="M378.42 543.04C403.94 543.04 430.21 541.48 455.35 544.88C461.38 545.7 468.21 544.83 474.31 544.83C476.48 544.83 478.83 544.59 480.99 544.81C483.51 545.08 484.57 546.35 487.04 546.73C490.16 546.51 493.28 546.25 496.39 545.96C499.83 545.77 503.26 545.46 506.68 545.05C510.17 544.47 512.97 543.92 516.54 543.93C524.37 543.96 532.07 543.99 539.83 543.23C550.04 542.23 560.65 543.06 570.94 543.03C575.29 543.02 577.84 543.12 578.57 547.86C579.55 554.2 578.57 561.55 578.55 567.97C578.53 575.51 580.01 582.77 580.39 590.26C580.69 596.09 580.34 602.06 580.34 607.9V635.51" stroke="#1B1B19" stroke-width="2.35"/>
<path d="M342.53 543.04C339.52 543.04 336.52 543.04 333.51 543.04C332.68 543.04 330.54 542.64 329.84 542.98C328.08 543.84 328.97 548.78 328.82 550.45C328.56 553.3 327.48 555.6 327.15 558.25C326.87 560.5 327.19 563.02 327.19 565.29C327.19 570.49 327.48 575.43 328.31 580.57C331.01 597.24 329.89 614.85 329.89 631.93" stroke="#1B1B19" stroke-width="2.35"/>
<path d="M253.73 630.09H271.69C275.38 630.09 279.07 630.13 282.76 630.09C284.28 630.07 285.79 630.04 287.3 629.99C288.22 630.15 288.87 630.68 289.25 631.59C293.67 632.63 298.54 632.03 303.04 632.01C308.62 631.99 314.21 632.01 319.79 632.01H343.6C358.13 632.01 372.41 632.17 386.87 630.51C402.74 628.69 419.35 630.08 435.3 630.08H520.67C527.01 630.08 533.36 630.09 539.7 630.08C542.95 630.08 546.17 629.7 549.35 630.51C552.65 631.35 554.84 632.03 558.48 632C569.32 631.9 580.17 632 591.01 632" stroke="#1B1B19" stroke-width="2.35"/>
<path d="M344.15 501.03C337.2 501.03 330.12 501.47 323.17 501.06C322.12 501 321.23 500.48 320.2 500.28C319.4 500.12 318.51 500.42 317.74 500.23C317.34 500.13 317.18 499.87 316.81 499.78C316.46 499.69 316.14 499.86 315.78 499.73C315.76 499.62 315.74 499.5 315.72 499.39" stroke="#1B1B19" stroke-width="2.35"/>
<path d="M672.37 621.67C676.98 621.67 681.76 622.07 686.32 621.42C689 621.04 691.68 621.01 694.38 621.01" stroke="#1B1B19" stroke-width="2.35"/>
<path d="M673.04 612.67C673.48 611.62 680.78 612.34 681.56 612.34C684.06 612.34 686.56 612.34 689.07 612.34H693.72" stroke="#1B1B19" stroke-width="2.35"/>
<path d="M672.37 603H680.88C684.29 603 688.12 602.56 691.52 603.08C692.84 603.28 694.03 603.34 695.38 603.34" stroke="#1B1B19" stroke-width="2.35"/>
<path d="M673.04 593.66H688.66C689.43 593.66 690.2 593.63 690.96 593.66C691.85 593.68 692.85 594.13 693.71 594" stroke="#1B1B19" stroke-width="2.35"/>
<path d="M673.04 584.32H693.39" stroke="#1B1B19" stroke-width="2.35"/>
<a href="#ref1"></a><rect x="581" y="506" width="329" height="124" style="opacity:0;" fill="#FF0000"/></a>
<a href="#ref2"></a><rect x="327" y="543" width="256" height="87" style="opacity:0;" fill="#FF0000"/></a>
<a href="#ref3"></a><rect x="299" y="499" width="284" height="44" style="opacity:0;" fill="#FF0000"/></a>
<a href="#ref4"></a><rect x="160" y="396" width="156" height="147" style="opacity:0;" fill="#FF0000"/></a>
<a href="#ref5"></a><rect x="316" y="396" width="259" height="103" style="opacity:0;" fill="#FF0000"/></a>
<a href="#ref6"></a><rect x="656" y="167" width="44" height="332" style="opacity:0;" fill="#FF0000"/></a>
<a href="#ref7"></a><rect x="160" y="150" width="496" height="251" style="opacity:0;" fill="#FF0000"/></a>
</g>
<defs>
<clipPath id="clip0_301_54">
<rect width="971.65" height="742.4" fill="white"/>
</clipPath>
</defs>
</svg>
