<svg width="811" height="587" viewBox="0 0 811 587" fill="none" xmlns="http://www.w3.org/2000/svg">
<g clip-path="url(#clip0_301_2)">
<path d="M572.893 148.845V147.606H564.074V148.845H572.893ZM569.895 156.8L564.448 148.903L563.411 149.595L568.858 157.52L569.895 156.8ZM569.895 158.385L568.858 157.693L563.411 165.791L564.448 166.483L569.895 158.385ZM572.893 167.78V166.541H564.074V167.78H572.893Z" fill="#1B1C19"/>
<path d="M17.2623 352.662V351.733H25.1067V352.662H17.2623ZM25.1499 352.684L25.8631 352.079L29.3639 356.228L28.6507 356.811L25.1499 352.684ZM19.164 365.693V352.9H20.0932V365.693H19.164ZM28.6724 361.954V356.854H29.6016V361.954H28.6724ZM25.1499 365.931L28.6724 361.976L29.3639 362.603L25.8414 366.536L25.1499 365.931ZM17.2623 366.86V365.931H25.1283V366.86H17.2623ZM39.3366 358.173L42.5132 351.43L43.356 351.819L40.1793 358.562L39.3366 358.173ZM43.3776 365.715V351.819H44.3069V365.715H43.3776ZM39.9632 366.86V365.931H47.8941V366.86H39.9632ZM53.0974 352.662V351.733H56.944V352.662H53.0974ZM49.683 354.758L52.4275 352.014L53.0758 352.662L50.3313 355.407L49.683 354.758ZM56.9656 352.662L57.6139 352.014L60.38 354.758L59.7101 355.428L56.9656 352.662ZM52.5139 365.347L56.6847 353.008L57.5707 353.31L53.3783 365.65L52.5139 365.347ZM49.4021 363.165V355.428H50.3313V363.165H49.4021ZM59.7101 363.186V355.45H60.6393V363.186H59.7101ZM49.683 363.834L50.3313 363.186L53.0758 365.931L52.4275 366.579L49.683 363.834ZM56.9656 365.931L59.7101 363.208L60.3584 363.856L57.6139 366.601L56.9656 365.931ZM53.0974 366.86V365.931H56.944V366.86H53.0974ZM62.4469 365.585L67.7198 351.56L68.5842 351.884L63.3113 365.909L62.4469 365.585ZM63.6571 365.045L69.4054 358.583L70.0969 359.188L64.3486 365.671L63.6571 365.045ZM70.0537 359.296L70.9397 359.123L72.3443 365.715L71.4367 365.909L70.0537 359.296ZM63.3113 366.86V365.931H71.8689V366.86H63.3113Z" fill="#1B1C19"/>
<path d="M130.822 352.662V351.733H138.667V352.662H130.822ZM138.71 352.684L139.423 352.079L142.924 356.228L142.211 356.811L138.71 352.684ZM132.724 365.693V352.9H133.653V365.693H132.724ZM142.232 361.954V356.854H143.161V361.954H142.232ZM138.71 365.931L142.232 361.976L142.924 362.603L139.401 366.536L138.71 365.931ZM130.822 366.86V365.931H138.688V366.86H130.822ZM152.896 358.173L156.073 351.43L156.916 351.819L153.739 358.562L152.896 358.173ZM156.937 365.715V351.819H157.867V365.715H156.937ZM153.523 366.86V365.931H161.454V366.86H153.523ZM166.657 352.662V351.733H170.504V352.662H166.657ZM163.243 354.758L165.987 352.014L166.636 352.662L163.891 355.407L163.243 354.758ZM170.525 352.662L171.174 352.014L173.94 354.758L173.27 355.428L170.525 352.662ZM166.074 365.347L170.244 353.008L171.13 353.31L166.938 365.65L166.074 365.347ZM162.962 363.165V355.428H163.891V363.165H162.962ZM173.27 363.186V355.45H174.199V363.186H173.27ZM163.243 363.834L163.891 363.186L166.636 365.931L165.987 366.579L163.243 363.834ZM170.525 365.931L173.27 363.208L173.918 363.856L171.174 366.601L170.525 365.931ZM166.657 366.86V365.931H170.504V366.86H166.657ZM175.704 352.64V351.733H185.191V352.64H175.704ZM176.461 366.622L185.191 352.684L185.969 353.181L177.239 367.119L176.461 366.622Z" fill="#1B1C19"/>
<path d="M233.572 352.662V351.733H241.417V352.662H233.572ZM241.46 352.684L242.173 352.079L245.674 356.228L244.961 356.811L241.46 352.684ZM235.474 365.693V352.9H236.403V365.693H235.474ZM244.982 361.954V356.854H245.911V361.954H244.982ZM241.46 365.931L244.982 361.976L245.674 362.603L242.151 366.536L241.46 365.931ZM233.572 366.86V365.931H241.438V366.86H233.572ZM255.646 358.173L258.823 351.43L259.666 351.819L256.489 358.562L255.646 358.173ZM259.687 365.715V351.819H260.617V365.715H259.687ZM256.273 366.86V365.931H264.204V366.86H256.273ZM269.407 352.662V351.733H273.254V352.662H269.407ZM265.993 354.758L268.737 352.014L269.386 352.662L266.641 355.407L265.993 354.758ZM273.275 352.662L273.924 352.014L276.69 354.758L276.02 355.428L273.275 352.662ZM268.824 365.347L272.994 353.008L273.88 353.31L269.688 365.65L268.824 365.347ZM265.712 363.165V355.428H266.641V363.165H265.712ZM276.02 363.186V355.45H276.949V363.186H276.02ZM265.993 363.834L266.641 363.186L269.386 365.931L268.737 366.579L265.993 363.834ZM273.275 365.931L276.02 363.208L276.668 363.856L273.924 366.601L273.275 365.931ZM269.407 366.86V365.931H273.254V366.86H269.407ZM280.723 352.662V351.733H287.033V352.662H280.723ZM279.772 353.051L280.637 352.684L283.857 359.858L283.014 360.247L279.772 353.051ZM283.9 359.858L287.098 352.705L287.941 353.073L284.743 360.247L283.9 359.858ZM280.248 361.198V360.269H287.422V361.198H280.248ZM279.319 365.887V361.22H280.226V365.887H279.319ZM287.444 365.887V361.22H288.373V365.887H287.444ZM280.248 366.86V365.931H287.422V366.86H280.248Z" fill="#1B1C19"/>
<path d="M287.432 507.802V506.873H295.277V507.802H287.432ZM295.32 507.824L296.033 507.219L299.534 511.368L298.821 511.951L295.32 507.824ZM289.334 520.833V508.04H290.263V520.833H289.334ZM298.842 517.095V511.995H299.772V517.095H298.842ZM295.32 521.071L298.842 517.116L299.534 517.743L296.011 521.676L295.32 521.071ZM287.432 522V521.071H295.298V522H287.432ZM309.506 513.313L312.683 506.57L313.526 506.959L310.349 513.702L309.506 513.313ZM313.548 520.855V506.959H314.477V520.855H313.548ZM310.133 522V521.071H318.064V522H310.133ZM323.267 507.802V506.873H327.114V507.802H323.267ZM319.853 509.898L322.597 507.154L323.246 507.802L320.501 510.547L319.853 509.898ZM327.136 507.802L327.784 507.154L330.55 509.898L329.88 510.568L327.136 507.802ZM322.684 520.487L326.855 508.148L327.741 508.451L323.548 520.79L322.684 520.487ZM319.572 518.305V510.568H320.501V518.305H319.572ZM329.88 518.326V510.59H330.809V518.326H329.88ZM319.853 518.975L320.501 518.326L323.246 521.071L322.597 521.719L319.853 518.975ZM327.136 521.071L329.88 518.348L330.528 518.996L327.784 521.741L327.136 521.071ZM323.267 522V521.071H327.114V522H323.267ZM333.805 507.802V506.873H339.532V507.802H333.805ZM337.047 512.578L339.856 507.262L340.677 507.694L337.868 513.01L337.047 512.578ZM334.238 513.961V513.032H339.899V513.961H334.238ZM336.442 521.762L340.288 513.162L341.153 513.55L337.285 522.151L336.442 521.762ZM332.747 517.959L333.503 517.44L336.42 521.741L335.664 522.259L332.747 517.959Z" fill="#1B1C19"/>
<path d="M479.832 352.146L480.74 351.952L483.981 367.035L483.074 367.23L479.832 352.146ZM484.003 367.035L487.244 351.952L488.152 352.146L484.911 367.23L484.003 367.035ZM488.195 352.146L489.103 351.952L492.323 367.035L491.415 367.23L488.195 352.146ZM492.344 367.035L495.564 351.952L496.472 352.146L493.252 367.23L492.344 367.035ZM498.883 355.733L502.73 351.714L503.399 352.362L499.553 356.382L498.883 355.733ZM503.421 352.362L504.091 351.714L507.938 355.733L507.289 356.382L503.421 352.362ZM498.624 366.279V356.403H499.553V366.279H498.624ZM499.574 367.23V366.301H508.283V367.23H499.574Z" fill="#1B1C19"/>
<path d="M641.832 250.232V249.303H649.677V250.232H641.832ZM649.72 250.254L650.433 249.649L653.934 253.798L653.221 254.381L649.72 250.254ZM643.734 263.263V250.47H644.663V263.263H643.734ZM653.242 259.524V254.425H654.172V259.524H653.242ZM649.72 263.501L653.242 259.546L653.934 260.173L650.411 264.106L649.72 263.501ZM641.832 264.43V263.501H649.698V264.43H641.832ZM663.907 255.743L667.083 249L667.926 249.389L664.749 256.132L663.907 255.743ZM667.948 263.285V249.389H668.877V263.285H667.948ZM664.533 264.43V263.501H672.464V264.43H664.533ZM673.108 255.743L676.284 249L677.127 249.389L673.95 256.132L673.108 255.743ZM677.149 263.285V249.389H678.078V263.285H677.149ZM673.734 264.43V263.501H681.665V264.43H673.734ZM683.713 250.232V249.303H689.98V250.232H683.713ZM682.741 253.301V250.254H683.67V253.301H682.741ZM690.024 263.479V250.275H690.953V263.479H690.024ZM682.741 254.079L683.324 253.344L689.98 258.552L689.397 259.265L682.741 254.079ZM683.195 264.43V263.501H690.002V264.43H683.195Z" fill="#1B1C19"/>
<path d="M661.99 478.21V463.08H662.92V478.21H661.99ZM663.44 471.18V470.25H669.43V471.18H663.44ZM670.01 478.21V463.08H670.92V478.21H670.01ZM673.51 475.33V472.39H674.44V475.33H673.51ZM673.79 476.04L674.44 475.37L676.41 477.27L675.76 477.94L673.79 476.04ZM673.83 471.69L675.78 469.81L676.43 470.48L674.46 472.36L673.83 471.69ZM676.45 470.46V469.55H679.13V470.46H676.45ZM676.45 478.2V477.27H679.13V478.2H676.45ZM679.17 470.48L679.8 469.81L681.79 471.69L681.14 472.36L679.17 470.48ZM679.17 477.29L681.14 475.34L681.79 476.01L679.82 477.96L679.17 477.29ZM681.16 475.32V472.38H682.09V475.32H681.16ZM683.38 476.83L686.77 469.46L687.61 469.85L684.22 477.22L683.38 476.83ZM684.22 478.19V477.26H693.21V478.19H684.22ZM687.66 469.84L688.29 469.17L692.16 472.87L691.51 473.54L687.66 469.84ZM695.27 478.19V463.06H696.2V478.19H695.27ZM696.57 470.47V469.54H701.2V470.47H696.57ZM701.22 478.19V470.49H702.15V478.19H701.22ZM704.09 478.19V477.26H712.39V478.19H704.09ZM704.78 470.47V469.54H713.08V470.47H704.78ZM705.04 471.31L705.65 470.62L712.09 476.37L711.46 477.06L705.04 471.31V471.31ZM714.25 465.69V464.07H715.18V465.69H714.25ZM715.27 463.98V463.05H716.89V463.98H715.27ZM715.27 466.7V465.77H716.89V466.7H715.27ZM715.62 469.53H716.55V478.18H715.62V469.53ZM716.98 465.68V464.06H717.89V465.68H716.98ZM718.62 469.27V468.34H725.73V469.27H718.62ZM721.71 467.99L722.94 462.46L723.83 462.65L722.62 468.18L721.71 467.99ZM721.71 478.17V469.52H722.64V478.17H721.71ZM726.16 470.45V469.52H732.97V470.45H726.16ZM729.55 476.85L732.32 470.47L733.18 470.86L730.41 477.22L729.55 476.85ZM729.72 478.17V477.24H736.53V478.17H729.72Z" fill="#1B1C19"/>
<path d="M646.342 129.932V129.003H654.187V129.932H646.342ZM654.23 129.954L654.943 129.349L658.444 133.498L657.731 134.081L654.23 129.954ZM648.244 142.963V130.17H649.173V142.963H648.244ZM657.752 139.224V134.124H658.681V139.224H657.752ZM654.23 143.201L657.752 139.246L658.444 139.873L654.921 143.806L654.23 143.201ZM646.342 144.13V143.201H654.208V144.13H646.342ZM668.416 135.443L671.593 128.7L672.436 129.089L669.259 135.832L668.416 135.443ZM672.457 142.985V129.089H673.387V142.985H672.457ZM669.043 144.13V143.201H676.974V144.13H669.043ZM677.618 135.443L680.794 128.7L681.637 129.089L678.46 135.832L677.618 135.443ZM681.659 142.985V129.089H682.588V142.985H681.659ZM678.244 144.13V143.201H686.175V144.13H678.244ZM686.905 142.855L692.178 128.83L693.042 129.154L687.769 143.179L686.905 142.855ZM688.115 142.315L693.864 135.853L694.555 136.458L688.807 142.941L688.115 142.315ZM694.512 136.566L695.398 136.394L696.802 142.985L695.895 143.179L694.512 136.566ZM687.769 144.13V143.201H696.327V144.13H687.769Z" fill="#1B1C19"/>
<path d="M574.116 28.0654L579.736 21.9555L580.659 22.7913L575.039 28.9012L574.116 28.0654ZM580.716 22.8201L581.61 21.9555L587.201 27.9501L586.307 28.7859L580.716 22.8201ZM587.345 27.9501L592.907 21.9555L593.8 22.8201L588.238 28.7859L587.345 27.9501ZM593.858 22.7913L594.78 21.9555L600.4 28.0654L599.507 28.9012L593.858 22.7913ZM574.145 29.7946L575.039 28.9588L587.201 41.8702L586.307 42.7059L574.145 29.7946ZM587.345 41.8702L599.536 28.9588L600.429 29.7946L588.238 42.7059L587.345 41.8702Z" fill="#1B1C19"/>
<path d="M17.2623 466.392V465.463H25.1067V466.392H17.2623ZM25.1499 466.414L25.8631 465.809L29.3639 469.958L28.6507 470.541L25.1499 466.414ZM19.164 479.423V466.63H20.0932V479.423H19.164ZM28.6724 475.685V470.585H29.6016V475.685H28.6724ZM25.1499 479.661L28.6724 475.706L29.3639 476.333L25.8414 480.266L25.1499 479.661ZM17.2623 480.59V479.661H25.1283V480.59H17.2623ZM39.3366 471.903L42.5132 465.161L43.356 465.55L40.1793 472.292L39.3366 471.903ZM43.3776 479.445V465.55H44.3069V479.445H43.3776ZM39.9632 480.59V479.661H47.8941V480.59H39.9632ZM53.0974 466.392V465.463H56.944V466.392H53.0974ZM49.683 468.488L52.4275 465.744L53.0758 466.392L50.3313 469.137L49.683 468.488ZM56.9656 466.392L57.6139 465.744L60.38 468.488L59.7101 469.158L56.9656 466.392ZM52.5139 479.077L56.6847 466.738L57.5707 467.041L53.3783 479.38L52.5139 479.077ZM49.4021 476.895V469.158H50.3313V476.895H49.4021ZM59.7101 476.916V469.18H60.6393V476.916H59.7101ZM49.683 477.565L50.3313 476.916L53.0758 479.661L52.4275 480.309L49.683 477.565ZM56.9656 479.661L59.7101 476.938L60.3584 477.586L57.6139 480.331L56.9656 479.661ZM53.0974 480.59V479.661H56.944V480.59H53.0974ZM63.6355 468.942L65.6452 465.29L66.4664 465.744L64.4567 469.374L63.6355 468.942ZM65.8829 467.754V466.825H72.6036V467.754H65.8829ZM63.8732 470.088L64.4783 469.396L72.4524 476.441L71.8257 477.132L63.8732 470.088ZM63.83 479.639V475.836H64.7592V479.639H63.83ZM69.3189 479.639L71.8257 477.176L72.474 477.824L69.9888 480.309L69.3189 479.639ZM64.7808 480.59V479.661H69.2973V480.59H64.7808Z" fill="#1B1C19"/>
<path d="M665.18 111.33H629.4" stroke="black" stroke-width="2.4" stroke-miterlimit="10"/>
<path d="M4.51997 584.27C4.51997 578.99 3.51997 574.37 2.95997 569.23C1.95997 559.99 1.33997 550.06 2.71997 540.77C4.85997 526.32 4.51997 512.06 4.51997 497.48V441.01C4.51997 430.46 5.80997 420.12 5.57997 409.59C5.05997 385.8 4.51997 362.02 4.51997 338.22" stroke="#1B1C19" stroke-width="2.4"/>
<path d="M2.97998 581.18C9.26998 581.22 15.49 581.04 21.72 582.21C24.64 582.76 27.59 582.45 30.44 582.98C35.51 583.92 41.59 584.17 46.81 583.45C51.44 582.81 55.71 581.97 60.42 581.99C64.82 582.01 69.23 582.01 73.63 581.97C80.32 581.91 86.94 583.62 93.67 583.61" stroke="#1B1C19" stroke-width="2.4"/>
<path d="M4.46997 447.39C9.71997 447.39 14.98 447.39 20.23 447.39C23.1 447.39 26 447.53 28.87 447.43C31.22 447.35 33.46 446.74 35.8 446.61C42.52 446.22 49.4 446.58 56.02 447.42C64.92 448.54 74.15 448.65 83.15 447.56C86.91 447.11 91.4 446.99 95.16 447.4C95.4 448.34 95.44 449.29 95.27 450.27C95.21 452.73 95.55 454.89 95.85 457.32C96.15 459.75 95.99 462.17 96.02 464.6" stroke="#1B1C19" stroke-width="2.4"/>
<path d="M78.8 494.21C83.76 494.21 88.72 494.31 93.68 494.21C94.13 494.21 95.5 493.93 95.89 494.32C96.39 494.81 96.02 497.24 96.02 497.82C96.04 499.89 95.74 501.72 95.42 503.75C94.99 506.47 95.26 509.33 95.25 512.07C95.25 518.78 95.25 525.5 95.25 532.21V578.45C95.25 580.43 95.68 583.09 95.12 584.98C94.91 585.02 94.71 585.07 94.5 585.11" stroke="#1B1C19" stroke-width="2.4"/>
<path d="M95.8999 582.14C106.65 582.14 117.17 581.4 127.92 581.4C135.55 581.4 143.65 580.72 151.07 581.98C153.43 582.38 155.92 581.72 158.24 582.13C159.69 582.39 160.49 582.84 162.05 582.89C165.83 583.01 169.32 583.64 173.25 583.64H202.95C204.97 583.64 210.41 584.61 210.21 582.33C210.13 581.44 209.06 579.97 208.86 578.92C208.17 575.23 208.9 571.14 209.83 567.58C210.7 564.21 210.37 560.61 210.37 557.1V532.97C210.37 531.31 210.38 529.64 210.37 527.97C210.35 525.25 211.19 523.45 211.71 520.94C212.27 518.27 212.09 515.46 212.58 512.8C212.98 510.61 213.7 508.48 213.38 506.18C212.95 503.08 211.54 500.64 211.1 497.8C210.99 497.13 210.7 493.37 211.23 492.85C211.7 492.38 212.8 492.84 213.35 492.76C214.42 492.6 215.28 492.13 216.32 491.96C223.17 490.83 230.58 492.71 237.49 491.83C242.58 491.18 247.62 489.72 252.74 489.76C255.71 489.78 258.69 489.76 261.66 489.76" stroke="#1B1C19" stroke-width="2.4"/>
<path d="M284.71 491.38C291.95 491.38 299.18 491.31 306.42 491.38C311.39 491.43 316.19 489.7 321.12 489.75C325.71 489.8 329.84 490.24 334.28 491.2C336.57 491.69 338.96 490.93 341.22 491.36C342.56 491.61 343.44 492.47 344.93 492.2" stroke="#1B1C19" stroke-width="2.4"/>
<path d="M364.95 491.42C366.72 489.29 372.55 490.59 374.88 490.58C377.9 490.58 380.56 491.12 383.52 491.46C388.58 492.04 394.24 491.61 399.35 491.44C404.27 491.27 409.11 489.71 414.04 489.75C417.51 489.78 420.98 489.75 424.45 489.75" stroke="#1B1C19" stroke-width="2.4"/>
<path d="M443.78 491.46C448 491.46 452.23 491.46 456.46 491.48C461 491.51 464.86 490.61 469.23 489.63C473.83 488.6 478.64 489.04 483.33 489.04H497.51C500.39 489.04 506.14 487.84 508.48 489.85" stroke="#1B1C19" stroke-width="2.4"/>
<path d="M529.27 491.24C534 491.21 538.66 490.45 543.3 490.5C545.22 490.52 547.53 490.13 549.37 490.61C547.01 499.18 549.54 508.84 549.46 517.64C549.4 524.39 549.48 531.14 549.44 537.89C549.44 539.14 549.02 541.11 549.36 542.27C550.05 544.64 551.02 545.57 550.97 548.33C550.86 553.76 550.93 559.2 550.93 564.64V585.01" stroke="#1B1C19" stroke-width="2.4"/>
<path d="M376.94 491.35C376.94 494.3 376.94 497.25 376.94 500.19C376.94 504.97 376.09 509.58 376.14 514.34C376.25 524.9 373.21 535.19 373.77 545.73C373.95 549.05 375.29 552.01 376 555.19C376.44 557.14 375.98 559.15 376.31 561.12C376.6 562.88 377.49 564.44 377.76 566.19C378.55 571.42 377.72 577.47 377.72 582.78" stroke="#1B1C19" stroke-width="2.4"/>
<path d="M466.15 490.6C466.08 502.04 465.35 513.12 463.58 524.4C462.83 529.17 463.03 533.87 463.01 538.68C463 542.02 463.58 544.34 464.41 547.53C466.45 555.38 465.37 564.01 465.37 572.06C465.37 574.99 464.94 579.77 466.95 582.08" stroke="#1B1C19" stroke-width="2.4"/>
<path d="M210.38 581.22H243.97C251.31 581.22 259.14 580.41 266.45 581.39C281.27 583.38 295.92 580.44 310.74 580.44C314.66 580.44 318.6 580.38 322.52 580.42C325.91 580.46 329.05 581.26 332.5 581.22C335.21 581.19 337.73 581.65 340.34 582.17C341.4 582.38 340.34 582.65 342.59 582.79C346.63 583.05 350.71 582.57 354.75 582.76C357.95 582.91 360.96 584.14 364.16 584.37C368.16 584.67 372.3 584.33 376.32 584.33H390.79C395.5 584.33 401.1 585.17 405.74 584.2C406.52 581.43 412.97 582.76 414.5 582.76C419.9 582.78 424.94 583.16 430.25 583.59C437.56 584.18 445.04 583.48 452.33 584.5C459.78 585.54 467.45 585.11 474.99 585.11H553.07" stroke="#1B1C19" stroke-width="2.4"/>
<path d="M807.28 582.05C787.85 582.05 770.08 583.6 750.65 583.6H734.64C728.46 583.6 721.28 584.68 715.19 583.68C714.62 583.41 714.18 582.98 713.88 582.39C712.26 582.11 710.74 582.29 709.14 582.08C704.55 581.48 700.35 580.45 695.62 580.49C690.19 580.54 684.76 580.49 679.33 580.49H618.55C606.27 580.49 593.71 581.28 581.45 580.51C575.87 580.16 570.41 579.71 564.76 579.71C561.31 579.71 550.77 577.92 548.53 580.49" stroke="#1B1C19" stroke-width="2.4"/>
<path d="M805.68 448.23C805.68 462.48 805.73 476.73 805.68 490.98C805.63 504.52 808.94 517.63 808.87 531.16C808.83 539.34 808.77 547.53 808.87 555.71C808.91 559.82 807.48 562.94 807.28 566.94C807.06 571.45 807.28 576.02 807.28 580.54" stroke="#1B1C19" stroke-width="2.4"/>
<path d="M645.12 0.73999C645.12 36.8 642.29 73.76 645.17 109.04C651.49 110.62 659.43 109.26 665.99 109.26H682.68C695.13 109.26 708.25 108.15 720.64 109.19C728.94 109.89 737.18 112.86 745.45 114.08C751.6 114.99 757.36 115.21 763.77 115.21C776.12 115.21 789.04 114.31 801.32 115.26C803.35 125.59 800.88 137.22 799.87 147.46C798.29 163.57 799.56 181.18 801.81 197.12C802.74 203.72 803.34 211.15 805.11 217.55C806.28 219.39 807.1 221.38 807.55 223.51C808.54 228.03 807.39 234.16 807.4 238.81C807.4 245.83 808.03 252.94 806.74 259.83C805.32 262.45 804.5 265.25 804.27 268.22C803.84 273.18 804.43 278.51 804.42 283.49C804.42 290.75 803.74 298.32 804.27 305.55C804.77 312.4 806.95 319.23 807.72 326.15C808.9 336.73 808.93 347.16 808.92 357.81C808.92 380.46 802.71 402.31 802.9 425.1C802.95 431.59 801.82 439.08 802.86 445.46C803.47 449.25 804.45 451.71 804.43 455.65" stroke="#1B1C19" stroke-width="2.4"/>
<path d="M631.75 146.44C631.75 140.03 631.98 133.58 631.78 127.17C631.71 124.86 628.95 115.16 630.11 113.45C632.23 110.32 642.84 112.13 646.71 112.13" stroke="#1B1C19" stroke-width="2.4"/>
<path d="M630.47 173.2C630.47 218.44 628.76 263.29 628.76 308.49" stroke="#1B1C19" stroke-width="2.4"/>
<path d="M807.28 231.08H739.15C733.57 231.08 727.98 231.08 722.4 231.08C717.29 231.08 711.98 230.57 706.89 230.92C701.47 231.29 696.81 233.84 691.46 234.34C677.5 235.64 662.66 234.18 648.63 234.18C643.98 234.18 632.06 231.78 628.82 235.73" stroke="#1B1C19" stroke-width="2.4"/>
<path d="M630.36 354.59C642.35 354.59 654.64 355.51 666.6 354.41C673.8 353.75 681.58 352.95 688.81 353.72C699.82 354.88 711.1 355.47 722.19 355.49C731.23 355.5 740.16 353.77 749.2 353.77C757.95 353.77 766.7 353.77 775.44 353.77C780.86 353.77 786.33 353.51 791.75 353.73C794.84 353.85 797.84 354.59 800.95 354.62C802.49 354.63 804.43 353.9 805.12 355.43" stroke="#1B1C19" stroke-width="2.4"/>
<path d="M632.7 393.24C629.04 381.5 628.78 368.44 628.77 356.25C628.77 352.4 628.32 348.2 628.9 344.38C629.44 340.91 630.3 338.02 630.34 334.51" stroke="#1B1C19" stroke-width="2.4"/>
<path d="M804.3 449.82C780.65 449.82 756.85 449.03 733.22 449.78C726.38 450 719.65 450.57 712.75 450.57C705.85 450.57 698.23 450.37 691.2 451.2C684.02 452.05 674.36 450.25 667.54 449.48C655.99 448.18 645 446.77 633.4 446.8C625.44 446.82 617.84 448.35 609.91 448.32C602.7 448.29 595.16 448.93 587.96 448.3C586.31 442.13 588.3 433.78 588.66 427.47C593.44 427.05 597.83 424.99 602.59 424.47C608.11 423.87 613.54 423.59 619.09 423.59C624.64 423.59 630.18 423.59 635.72 423.59C637.65 423.59 644.25 422.51 645.15 424.34" stroke="#1B1C19" stroke-width="2.4"/>
<path d="M611.78 492.06H669.86C676.07 492.06 682.21 491.96 688.33 492.64C691.18 492.95 694.61 492.11 697.35 492.78C699.06 493.2 698.56 492.55 699.67 493.98C699.6 495.99 699.57 498 699.58 500.01C699.58 503.25 699.56 506.5 699.55 509.74C699.72 519.3 701.18 528.74 702.36 538.2C703.54 547.65 706.22 556.83 705.42 566.41C712.4 566.96 719.35 567.95 726.33 568.61C736.06 569.52 746.07 568.73 755.83 568.79C763.21 568.83 770.56 568.03 777.97 568.03C783.5 568.03 789.25 568.45 794.75 567.95C791 558.8 792.16 546.48 792.54 536.64C792.91 527.21 793.72 517.83 793.36 508.34C792.8 493.62 792.58 478.94 792.58 464.2C792.58 459.61 793.36 454.25 792.45 449.74C792.25 449.7 792.04 449.65 791.83 449.61" stroke="#1B1C19" stroke-width="2.4"/>
<path d="M0 338.22C8.15 338.16 15.87 336.6 24 336.66C34.08 336.73 44.16 336.7 54.24 336.7H111.21C123.09 336.7 133.82 337.1 145.51 339.8C157.77 342.64 170.88 341.27 183.38 341.26C205.13 341.25 227.01 338.72 248.38 335.43C259.58 333.71 272.62 334.61 283.78 336.28C295.41 338.01 306.71 338.22 318.41 338.22C335.1 338.22 350.89 339.74 367.46 341.67C382.56 343.43 397.76 342.78 412.97 342.78C435.38 342.78 457.1 341.52 479.33 338.67C490.69 337.21 501.44 333.8 512.96 333.61C524.82 333.42 536.71 333.65 548.57 333.65" stroke="#1B1C19" stroke-width="2.4"/>
<path d="M160.57 448.12C143.11 448.12 126.23 449.83 108.54 449.83" stroke="#1B1C19" stroke-width="2.4"/>
<path d="M118.15 335.25C118.15 337.36 117.95 339 117.53 341.03C117.03 343.47 117.35 346.15 117.35 348.65V362.75C117.35 367.89 118.15 372.49 118.15 377.6V392.36C118.15 394.43 118.2 396.5 118.17 398.56C118.15 400.34 117.54 401.73 117.31 403.45C117.11 404.97 117.35 406.72 117.35 408.25C117.35 411.68 117.38 415.11 117.35 418.55C117.33 420.85 118.05 422.34 118.13 424.67C118.19 426.23 118.58 426.93 119.17 428.34C119.72 429.65 119.47 430.59 119.7 431.86C120.18 434.46 120.54 436.66 120.54 439.33C120.54 443.3 120.54 447.26 120.54 451.22" stroke="#1B1C19" stroke-width="2.4"/>
<path d="M220.82 338.22C220.82 342.15 220.22 345.88 219.96 349.75C219.67 354.1 220 358.59 220 362.95C220 373.93 220.72 385.11 220.04 396.07C219.79 400.13 219.21 403.99 219.16 408.09C219.13 410.89 219.9 413.46 220.04 416.24C220.17 418.96 219.63 421.73 220.18 424.42C221.85 432.55 221.63 440.74 221.63 448.99" stroke="#1B1C19" stroke-width="2.4"/>
<path d="M181.39 448.12H206.12C209.8 448.12 213.48 448.12 217.16 448.12C220.92 448.12 224.44 448.91 228.14 448.98C233.74 449.1 239.17 449.8 244.79 449.8H251.49C253.67 449.8 256.58 450.37 258.68 449.66C258.72 449.43 258.76 449.19 258.81 448.96" stroke="#1B1C19" stroke-width="2.4"/>
<path d="M285.45 448.34C297.69 448.34 310.31 449.27 322.47 447.78C326.57 447.28 330.7 446.62 334.84 446.84C337.08 446.96 338.86 447.84 341.19 447.57C341.67 446.13 341.3 443.81 341.3 442.4C341.3 440.38 341.48 438.37 341.14 436.37C340.77 434.13 340.56 432.25 340.56 429.95C340.55 418.72 340.56 407.5 340.56 396.27V338.96" stroke="#1B1C19" stroke-width="2.4"/>
<path d="M365.73 450.58C377.49 447.74 389.46 446.06 401.56 447.98C406.53 448.77 411.33 449.03 416.34 449.01C419.57 449 422.68 448.18 425.95 448.2" stroke="#1B1C19" stroke-width="2.4"/>
<path d="M407.33 338.22C407.33 347.74 407.33 357.27 407.33 366.79C407.33 380.54 406.52 394.23 406.52 407.97C406.52 413.8 406.06 419.58 407.33 425.31C408.33 429.82 408.15 434.19 408.14 438.78C408.14 442.59 407.64 446.81 409.11 450.47L409.77 450.56" stroke="#1B1C19" stroke-width="2.4"/>
<path d="M445.99 449.09C449.84 448.36 453.83 447.14 457.74 446.81C459.97 446.63 463.34 447.5 465.26 446.04C466.78 444.89 466.83 442.73 466.83 441C466.83 434.46 465.87 427.84 464.52 421.46C463.71 417.6 463.83 413.83 463.83 409.92C463.83 408.72 463.31 406.06 463.83 404.98C464.4 403.78 466.73 404.25 468.18 404.24C471.8 404.19 475.43 404.12 479.05 404.24C482.56 404.37 486.02 405.38 489.54 405.7C499.21 406.57 509.32 405.77 519.04 405.76C523.06 405.76 526.83 405.48 530.79 405.01C533.57 404.68 535.98 403.52 538.83 403.5C540.29 403.5 541.87 403.35 543.31 403.48C545.19 403.64 547.16 404.08 549.03 404.36C550.29 404.55 551.79 405.25 553.06 405.02" stroke="#1B1C19" stroke-width="2.4"/>
<path d="M552.42 437.83V442.37C552.42 443.42 552.98 446.83 552.47 447.67C551.47 449.33 545.24 448.15 543.27 448.49C541.03 448.88 539.17 449.08 536.8 449.07C534.45 449.07 531.61 448.63 529.33 449.24C524.79 450.46 519.42 450 514.64 449.84C511.98 449.75 509.56 448.84 506.93 448.45C503.86 448 500.57 448.3 497.47 448.32C494.76 448.33 492.35 447.73 489.68 447.53C487.14 447.35 484.49 447.57 481.94 447.57H459.39" stroke="#1B1C19" stroke-width="2.4"/>
<path d="M554.62 0C554.62 27.71 556.51 56.11 554.61 83.77C554.33 87.91 553.08 88.52 551.62 92.37C549.86 97.01 550.74 102.17 550.76 107.09C550.78 112.28 550.76 117.46 550.76 122.65V159.81C550.76 167.85 550.76 175.89 550.76 183.94C550.76 188.99 549.06 197.51 550.56 202.29C552.25 207.69 554.51 209.49 554.72 215.67C555.21 230.44 554.63 245.35 554.63 260.13C554.63 268.13 556 277.8 553.77 285.41C552.06 286.25 550.99 287.56 550.56 289.34C550.63 291.23 550.71 293.12 550.77 295.02C550.83 298.28 550.76 301.55 550.76 304.81V338.22" stroke="black" stroke-width="2.4"/>
<path d="M460.6 340.08C460.6 354.99 460.19 369.97 460.6 384.88C460.7 388.55 462.34 390.58 463.38 393.95C464.23 396.7 463.58 400.37 463.58 403.26" stroke="black" stroke-width="2.4"/>
<path d="M565.25 566.81C570.39 566.81 575.71 567.36 580.8 566.46C583.79 565.93 586.77 565.88 589.78 565.88" stroke="#1B1C19" stroke-width="2.4"/>
<path d="M565.96 557.11C566.45 554.97 574.6 556.44 575.48 556.44C578.27 556.44 581.07 556.44 583.86 556.44H589.05" stroke="#1B1C19" stroke-width="2.4"/>
<path d="M565.25 545.88H574.74C578.54 545.88 582.8 545.21 586.6 546C588.07 546.31 589.4 546.4 590.9 546.4" stroke="#1B1C19" stroke-width="2.4"/>
<path d="M566 535.41H583.35C584.2 535.41 585.06 535.36 585.91 535.4C586.9 535.44 588.01 536.2 588.96 535.98" stroke="#1B1C19" stroke-width="2.4"/>
<path d="M566 525.19H588.67" stroke="#1B1C19" stroke-width="2.4"/>
<rect y="337" width="119" height="114" fill="#FF0000" style="opacity: 0;"/>
<rect x="96" y="451" width="453" height="38" fill="#FF0000" style="opacity: 0;"/>
<rect x="629" y="112" width="172" height="124" fill="#FF0000" style="opacity: 0;"/>
<rect x="629" y="236" width="172" height="124" fill="#FF0000" style="opacity: 0;"/>
<rect x="555" y="1" width="74" height="392" fill="#FF0000" style="opacity: 0;"/>
<rect x="119" y="337" width="100" height="114" fill="#FF0000" style="opacity: 0;"/>
<rect x="219" y="337" width="122" height="114" fill="#FF0000" style="opacity: 0;"/>
<rect x="6" y="447" width="90" height="135" fill="#FF0000" style="opacity: 0;"/>
<rect x="210" y="490" width="168" height="92" fill="#FF0000" style="opacity: 0;"/>
<rect x="591" y="451" width="204" height="117" fill="#FF0000" style="opacity: 0;"/>
</g>
<defs>
<clipPath id="clip0_301_2">
<rect width="810.11" height="586.41" fill="white"/>
</clipPath>
</defs>
</svg>
