<svg xmlns="http://www.w3.org/2000/svg" viewBox="0 0 88.05 72.17"><defs><style>.cls-1{fill:#000000;}.cls-1,.cls-2{stroke:#000000;stroke-miterlimit:10;}.cls-2{fill:#fff;}</style></defs><g id="Layer_2" data-name="Layer 2"><g id="Layer_1-2" data-name="Layer 1"><polygon class="cls-1" points="6.05 47.54 11.61 38.02 19.92 37 25.56 35.56 15.6 52.96 6.05 47.54"/><path class="cls-2" d="M25,36,15.49,52.56l-9-5.13,5.34-9.14,8.14-1H20Zm1.18-.9-6.29,1.61-8.43,1-5.78,9.9,10.06,5.7Z"/><path class="cls-2" d="M11.43,37.75A16.74,16.74,0,1,0,33.34,13L27.63,9.71l-3.39,5.92Z"/><path class="cls-1" d="M20.39,31.75a16.93,16.93,0,1,1,22.14-25l.2.28-5.56,9.34L36.91,16a16.24,16.24,0,0,0-3.66-3.16L27.8,9.74l-3.24,5.67L22.46,19,32,24.69l.24.15-.08.14-2.33,4-3.51,6.13Z"/><path d="M.74,63.82A1.25,1.25,0,0,0,1.4,64,.53.53,0,0,0,2,63.52a1.71,1.71,0,0,0-.62-1l-.25-.23-.17-.15c-.09-.09-.18-.2-.28-.32a1.44,1.44,0,0,1-.4-1c0-.84.74-1.39,1.86-1.39a2.88,2.88,0,0,1,.93.15,3,3,0,0,1,.34.16s0,0,0,.06c-.14.29-.23.47-.26.55l0,.06a1.84,1.84,0,0,0-.86-.26c-.47,0-.73.18-.73.47a.64.64,0,0,0,.17.38l.19.2c.22.23.31.33.34.35l.23.21.11.11.21.22a1.93,1.93,0,0,1,.58,1.25c0,.91-.7,1.5-1.77,1.5A2.27,2.27,0,0,1,0,64.28l0-.06a4.68,4.68,0,0,0,.41-.62l.29.22"/><path d="M5.7,61.84l0,1.64v.05c0,.45.12.65.42.65A.84.84,0,0,0,6.54,64a1.33,1.33,0,0,0,.21.41.84.84,0,0,1-.35.24,2.05,2.05,0,0,1-.78.14c-.83,0-1.14-.41-1.14-1.5V61.68H3.81a2.44,2.44,0,0,0,0-.26c0-.13,0-.19,0-.36a5.44,5.44,0,0,0,.6,0h.14v-.66a8.7,8.7,0,0,0,1.18-.57c0,.43,0,.56,0,1.23h.16c.42,0,.52,0,.9,0,0,.15,0,.21,0,.32a1.67,1.67,0,0,0,0,.3H5.7Z"/><path d="M11,61.46l0,1.8v.15a11.24,11.24,0,0,0,.07,1.3,3.32,3.32,0,0,0-.46,0c-.19,0-.39,0-.59,0H9.94V64.6a4.32,4.32,0,0,1,0-.54,1,1,0,0,1-1.15.74,1.38,1.38,0,0,1-.92-.3c-.31-.27-.39-.53-.39-1.31V61H8.65v.18c0,.44,0,.87,0,1.29v.65a2.75,2.75,0,0,0,.05.67.46.46,0,0,0,.47.39.73.73,0,0,0,.4-.17,1,1,0,0,0,.28-.82v-1c0-.75,0-.82,0-1.17H11Z"/><path d="M14.62,64.35a.82.82,0,0,1,0-.14,1.26,1.26,0,0,1-1.2.61c-1,0-1.62-.75-1.62-1.92a1.85,1.85,0,0,1,1.87-2,1.21,1.21,0,0,1,.78.22v-1.9c.32,0,.43,0,.67,0s.29,0,.54,0v.37c0,.67,0,1.53,0,3.17,0,.43,0,.76,0,1a8.73,8.73,0,0,0,0,.92,4.79,4.79,0,0,0-.51,0,3.31,3.31,0,0,0-.44,0h-.07a2.28,2.28,0,0,1,0-.36m-.3-2.66a.66.66,0,0,0-.55-.26c-.47,0-.69.43-.69,1.32s.27,1.47.75,1.47a.6.6,0,0,0,.49-.24,1.15,1.15,0,0,0,.15-.64V62.18a.86.86,0,0,0-.15-.49"/><path d="M18.37,64.81a2,2,0,0,1,0-3.92A1.54,1.54,0,0,1,20,62.64v.18h-.35c-.65,0-1.1,0-1.37,0h-.6a.72.72,0,0,0,0,.13,1.14,1.14,0,0,0,1.15,1.21,1.2,1.2,0,0,0,.71-.22,4,4,0,0,0,.21.41l0,0a2,2,0,0,1-1.39.46m.51-2.58s0-.09,0-.11c0-.49-.19-.74-.55-.74s-.59.32-.65.87Z"/><path d="M20.79,64.25v-2a11.24,11.24,0,0,0-.07-1.3l.47,0,.58,0h.07v.11a4.32,4.32,0,0,1,.05.54,1.13,1.13,0,0,1,1.2-.75,1.39,1.39,0,0,1,.93.31c.31.27.38.53.38,1.3v2.2H23.2v-.18c0-.44,0-.87,0-1.29v-.66a2.52,2.52,0,0,0-.06-.66.45.45,0,0,0-.47-.39c-.46,0-.72.36-.72,1v1c0,.76,0,.82,0,1.18H20.78Z"/><path d="M26.92,61.84l0,1.64v.05c0,.45.13.65.42.65a.84.84,0,0,0,.45-.17,1.33,1.33,0,0,0,.21.41.84.84,0,0,1-.35.24,2,2,0,0,1-.77.14c-.84,0-1.15-.41-1.15-1.5v0l0-1.58H25a2.44,2.44,0,0,0,0-.26c0-.13,0-.19,0-.36a5.44,5.44,0,0,0,.6,0h.14v-.66A8.7,8.7,0,0,0,27,59.86c0,.43,0,.56,0,1.23h.16c.42,0,.52,0,.9,0,0,.15,0,.21,0,.32a1.67,1.67,0,0,0,0,.3H26.92Z"/><path d="M30.36,64.81a2,2,0,0,1,0-3.92A1.54,1.54,0,0,1,32,62.64v.18h-.35c-.65,0-1.1,0-1.37,0h-.6a.72.72,0,0,0,0,.13,1.14,1.14,0,0,0,1.15,1.21,1.2,1.2,0,0,0,.71-.22,4,4,0,0,0,.21.41l0,0a2,2,0,0,1-1.39.46m.52-2.58v-.11c0-.49-.19-.74-.55-.74s-.59.32-.65.87Z"/><path d="M32.78,64.25l0-1.81V62.3a11.59,11.59,0,0,0-.08-1.3l.47,0,.58,0h.07v.11a3,3,0,0,1,0,.54,1.13,1.13,0,0,1,1.2-.75,1.39,1.39,0,0,1,.93.31c.31.27.38.53.38,1.3v2.2H35.19v-.18c0-.44,0-.87,0-1.29v-.66a2.52,2.52,0,0,0-.06-.66.44.44,0,0,0-.47-.39c-.46,0-.72.36-.72,1v1c0,.76,0,.82,0,1.18H32.77Z"/><path d="M37,61H38.2l.49,1.87a4.38,4.38,0,0,1,.15.72,2.89,2.89,0,0,1,.15-.75L39.6,61a4.78,4.78,0,0,0,.53,0,3.39,3.39,0,0,0,.44,0l.71,2.09s0,.08,0,.17a2.87,2.87,0,0,0,.08.31c.32-1.4.38-1.67.55-2.57l.41,0,.46,0h.08l-.14.47-.94,3.06-.06.18h-.54a2.88,2.88,0,0,0-.41,0l-.64-1.9,0-.09c-.1-.33-.16-.53-.17-.6a1.41,1.41,0,0,1,0-.24l0,.21-.19.74-.54,1.88a4.81,4.81,0,0,0-.52,0,4.67,4.67,0,0,0-.52,0l0-.19-.51-1.68-.47-1.46L37,61Z"/><path d="M45.22,64.81a2,2,0,0,1,0-3.92,1.54,1.54,0,0,1,1.64,1.75v.18H46.5c-.65,0-1.11,0-1.38,0h-.6v.13a1.13,1.13,0,0,0,1.14,1.21,1.18,1.18,0,0,0,.71-.22,4,4,0,0,0,.21.41l0,0a2,2,0,0,1-1.39.46m.52-2.58s0-.09,0-.11c0-.49-.2-.74-.55-.74s-.6.32-.65.87Z"/><path d="M50.09,61.94a1.06,1.06,0,0,0-.13-.09.85.85,0,0,0-.45-.13.68.68,0,0,0-.46.17c-.14.13-.19.28-.21.65v1c0,.74,0,.82,0,1.18h-.72l-.52,0v-.19c0-.43,0-1.12,0-2.08V62a5.4,5.4,0,0,0-.08-1L48,61l.58,0h.07v.45l0,.28a1.38,1.38,0,0,1,.48-.63,1.1,1.1,0,0,1,.68-.19,1.22,1.22,0,0,1,.67.17.41.41,0,0,0,0,.09c-.21.43-.31.67-.34.73a.24.24,0,0,1,0,.08Z"/><path d="M52,64.7h-.57a5.06,5.06,0,0,0-.53,0c0-.11,0-.19,0-.25,0-.28,0-1.58,0-2.74s0-1.93,0-2.25a2.2,2.2,0,0,0,0-.23h.64c.21,0,.32,0,.58,0v.23c0,.38,0,1.22,0,2.49v.51h0A14.89,14.89,0,0,0,53.54,61H54.6c-.52.56-.67.72-1.49,1.51.79,1,1,1.19,1.79,2.2H54a4.27,4.27,0,0,0-.48,0c-.58-.89-.73-1.11-1.33-1.94H52.1v.41c0,.79,0,1,0,1.52Z"/><path d="M57.71,64.46c0-.35,0-1.13,0-2.36v-.27c0-.95,0-1.58,0-1.89,0-.06,0-.14,0-.25l.21,0a6.9,6.9,0,0,1,1.3-.13l.55,0c1.11.07,1.7.62,1.7,1.54A1.59,1.59,0,0,1,60,62.65a5.07,5.07,0,0,1-.82,0H59c0,.34,0,.48,0,.68s0,.77,0,1.35h-.72c-.22,0-.33,0-.59,0,0-.11,0-.19,0-.25m1.55-2.36a.9.9,0,0,0,1-1,.89.89,0,0,0-.9-1,1.42,1.42,0,0,0-.29,0c0,.61,0,.83,0,1.51v.51Z"/><path d="M65.29,61.31a2,2,0,0,1,0,3.1,2.38,2.38,0,0,1-2.7,0,2.06,2.06,0,0,1,2.7-3.1m-2.15,1.46c0,.95.32,1.52.87,1.52s.7-.48.7-1.29-.34-1.59-.85-1.59-.68.41-.72,1.14v.22"/><path d="M68.32,61.84l0,1.64v.05c0,.45.12.65.42.65a.87.87,0,0,0,.45-.17,1.33,1.33,0,0,0,.21.41.84.84,0,0,1-.35.24,2.05,2.05,0,0,1-.78.14c-.83,0-1.14-.41-1.14-1.5V61.68h-.68a2.44,2.44,0,0,0,0-.26c0-.13,0-.19,0-.36a5.44,5.44,0,0,0,.6,0h.14v-.66a8.7,8.7,0,0,0,1.18-.57c0,.43,0,.56,0,1.23h.16c.42,0,.52,0,.9,0a2,2,0,0,0,0,.32,1.78,1.78,0,0,0,0,.3H68.32Z"/><path d="M69.81,64.4a3.44,3.44,0,0,0,.31-.51,1.13,1.13,0,0,0,.71.28c.28,0,.45-.13.45-.37a.27.27,0,0,0,0-.12c0-.13-.13-.22-.45-.46-.6-.47-.82-.78-.82-1.2,0-.68.59-1.12,1.47-1.12a1.86,1.86,0,0,1,1,.24s0,.07,0,.07l-.23.46,0,.06a1.59,1.59,0,0,0-.75-.21c-.26,0-.43.11-.43.27s.09.24.27.37l.3.24a1.77,1.77,0,0,1,.85,1.29c0,.66-.6,1.14-1.42,1.14a2.12,2.12,0,0,1-1.24-.35Z"/><path d="M75.79,64.35a.82.82,0,0,1,0-.14,1.26,1.26,0,0,1-1.2.61c-1,0-1.61-.75-1.61-1.92a1.84,1.84,0,0,1,1.86-2,1.19,1.19,0,0,1,.78.22v-1.9c.32,0,.43,0,.67,0s.29,0,.54,0v.37c0,.67,0,1.53,0,3.17,0,.43,0,.76,0,1a8.73,8.73,0,0,0,0,.92,4.7,4.7,0,0,0-.51,0,3.31,3.31,0,0,0-.44,0h-.07a2.28,2.28,0,0,1,0-.36m-.3-2.66a.66.66,0,0,0-.55-.26c-.47,0-.69.43-.69,1.32s.27,1.47.75,1.47a.6.6,0,0,0,.49-.24,1.15,1.15,0,0,0,.15-.64V62.18a.79.79,0,0,0-.15-.49"/><path d="M78.62,64.84c-.63,0-1-.33-1-.86a1.14,1.14,0,0,1,.78-1,3.07,3.07,0,0,1,.89-.23,4.35,4.35,0,0,1,.6-.06.72.72,0,0,0,0-.13c0-.22,0-.27,0-.38,0-.51-.15-.72-.47-.72a.48.48,0,0,0-.54.55.49.49,0,0,0,0,.11,7.09,7.09,0,0,0-1.2.23,1.13,1.13,0,0,1,.45-1,2.06,2.06,0,0,1,1.33-.38,2,2,0,0,1,1,.2,1.05,1.05,0,0,1,.3.22,1.11,1.11,0,0,1,.3.89,3.78,3.78,0,0,1,0,.46l0,.55a1.15,1.15,0,0,0,0,.18,5,5,0,0,0,0,.71,5.52,5.52,0,0,0,.15.56h-1.1A2.17,2.17,0,0,1,80,64a1.46,1.46,0,0,1-1.35.82m.07-1a.39.39,0,0,0,.39.41.73.73,0,0,0,.56-.34,1.49,1.49,0,0,0,.2-.69V63c-.71,0-1.16.34-1.16.82"/><path d="M87.13,64.69c-.23,0-.34,0-.61,0v-.18c0-.39,0-1,0-1.85a4.09,4.09,0,0,0,0-.75c0-.3-.17-.45-.41-.45s-.58.37-.62,1v2.25c-.27,0-.38,0-.6,0s-.34,0-.63,0v-.18c0-.3,0-.94,0-1.92v-.1c0-.3,0-.4,0-.58s-.17-.45-.39-.45a.41.41,0,0,0-.32.17,1.51,1.51,0,0,0-.24.58,2.74,2.74,0,0,0,0,.44v.86c0,.75,0,.82,0,1.18h-.71a4.7,4.7,0,0,0-.51,0c0-.67,0-.85,0-1.65V62.3c0-.1,0-.2,0-.33A7.5,7.5,0,0,0,82,61h1l0,.13c0,.22,0,.25,0,.42a1.14,1.14,0,0,1,1.11-.65c.61,0,1,.27,1.1.72a2.43,2.43,0,0,1,.19-.28,1.22,1.22,0,0,1,1.09-.45,1.09,1.09,0,0,1,.9.32,1.45,1.45,0,0,1,.29,1v.32c0,.91,0,1.57,0,2v.16c-.26,0-.37,0-.59,0"/><path d="M15.74,68.89c.54-1,.63-1.12,1-1.7a3,3,0,0,0,.61-.11c0,.15,0,.26,0,.34.08.54.32,2,.53,3.12l.06.28h-.68l-.18-1.18H15.84c-.3.58-.36.71-.59,1.18h-.56c.38-.72.48-.9,1.05-1.93m.67.39H17L17,68.94c-.1-.68-.11-.77-.15-1.26-.13.3-.15.36-.19.43l0,0-.56,1.12h.36"/><path d="M18.47,70.63l.3-1.28a7.38,7.38,0,0,0,.18-1.2l.25,0,.31,0a8.81,8.81,0,0,1-.14.89,2.88,2.88,0,0,1,.33-.49,1.19,1.19,0,0,1,.88-.46.55.55,0,0,1,.59.63,1.41,1.41,0,0,1,0,.28c-.07.43-.24,1.15-.4,1.74l0,.08h-.62c.15-.53.27-1,.37-1.43a2.48,2.48,0,0,0,.11-.65c0-.17-.08-.26-.21-.26a1.16,1.16,0,0,0-.73.56,2.42,2.42,0,0,0-.36.72L19,70.82h-.59Z"/><path d="M21.57,70.25a.62.62,0,0,0,.49.25.34.34,0,0,0,.39-.33.85.85,0,0,0-.24-.5l-.06-.08-.16-.2a.83.83,0,0,1-.21-.55c0-.45.38-.75.94-.75a1.26,1.26,0,0,1,.71.2,2.58,2.58,0,0,0-.18.31.86.86,0,0,0-.49-.16c-.22,0-.36.11-.36.28a.74.74,0,0,0,.18.41l.2.25a1,1,0,0,1,.29.69.87.87,0,0,1-1,.81,1,1,0,0,1-.74-.28l0,0a1.69,1.69,0,0,0,.25-.32"/><path d="M24.51,67.55h.07l.47-.1.08,0-.2.76h.66c0,.1,0,.13-.07.28v0h-.65l-.05.2L24.51,70a1.31,1.31,0,0,0-.05.31c0,.16.08.26.22.26a.63.63,0,0,0,.33-.1.75.75,0,0,0,.09.19s0,0,0,0a1.34,1.34,0,0,1-.74.22.47.47,0,0,1-.53-.5,2.12,2.12,0,0,1,.08-.51l.34-1.38h-.48a1.87,1.87,0,0,0,.08-.28v0h.48Z"/><path d="M27.5,69.9l-.13.24a1.63,1.63,0,0,1-.5.56,1,1,0,0,1-.59.19c-.45,0-.71-.3-.71-.84a1.92,1.92,0,0,1,1.72-2,.58.58,0,0,1,.58.35l0-.07.05-.16,0-.07h.52c-.07.18-.09.24-.18.52a13.22,13.22,0,0,0-.49,2.15h-.56c.08-.37.11-.5.23-.92m-.18-1.48a.83.83,0,0,0-.57.3,2.24,2.24,0,0,0-.56,1.37c0,.25.1.39.28.39a.51.51,0,0,0,.28-.09,1.21,1.21,0,0,0,.35-.29,2.65,2.65,0,0,0,.48-.85l.11-.4c0-.27-.15-.43-.37-.43"/><path d="M28.69,70.54l.74-3.41.05-.24h.62l-.06.24-.74,3.41-.06.28h-.62Z"/><path d="M31.05,67.55h.07l.47-.1.08,0-.2.76h.67c0,.1,0,.13-.08.28v0H31.4l0,.2L31.05,70a1.31,1.31,0,0,0-.05.31c0,.16.08.26.22.26a.63.63,0,0,0,.33-.1.75.75,0,0,0,.09.19s0,0,0,0a1.34,1.34,0,0,1-.74.22.47.47,0,0,1-.53-.5,2.12,2.12,0,0,1,.08-.51l.34-1.38h-.47a1.91,1.91,0,0,0,.07-.28v0h.48Z"/><path d="M35.39,70.14l0-.19q-.45.93-1.14.93c-.46,0-.74-.32-.74-.84a1.94,1.94,0,0,1,1.69-2,.59.59,0,0,1,.54.3l.34-1.5h.59c-.08.29-.13.5-.17.64s-.19.82-.48,2.06a9.61,9.61,0,0,0-.23,1.23h-.57c.05-.28.06-.38.13-.68m-.11-1.71a.47.47,0,0,0-.25.07,2,2,0,0,0-.87,1.6c0,.25.11.41.28.41a.57.57,0,0,0,.33-.15,2,2,0,0,0,.38-.38,2.63,2.63,0,0,0,.42-.72l.1-.41a.38.38,0,0,0-.39-.42"/><path d="M37.66,70.89a1,1,0,0,1-1.08-1.08,1.64,1.64,0,0,1,1.62-1.72c.52,0,.86.24.86.6,0,.54-.7,1-1.6,1h-.22a1.72,1.72,0,0,0,0,.2.6.6,0,0,0,.63.67,1,1,0,0,0,.62-.21l.15.23a1.43,1.43,0,0,1-1,.37m.48-1.76a.62.62,0,0,0,.28-.5.25.25,0,0,0-.24-.28.72.72,0,0,0-.49.23,1.52,1.52,0,0,0-.42.8,1.48,1.48,0,0,0,.87-.25"/><path d="M39.27,70.25a.59.59,0,0,0,.48.25.34.34,0,0,0,.39-.33.85.85,0,0,0-.24-.5l-.06-.08-.16-.2a.82.82,0,0,1-.2-.55c0-.45.37-.75.93-.75a1.26,1.26,0,0,1,.71.2c-.07.11-.09.15-.18.31a.86.86,0,0,0-.49-.16c-.22,0-.36.11-.36.28a.7.7,0,0,0,.19.41l.19.25a1,1,0,0,1,.3.69.88.88,0,0,1-1,.81,1,1,0,0,1-.74-.28l0,0a1.69,1.69,0,0,0,.25-.32"/><path d="M43.66,70.89a1,1,0,0,1-1-1.14,1.61,1.61,0,0,1,1.58-1.66,1,1,0,0,1,1,1.09,1.6,1.6,0,0,1-1.58,1.71m.53-2.49a.69.69,0,0,0-.55.34,2.16,2.16,0,0,0-.39,1.18c0,.4.15.65.4.65.49,0,1-.77,1-1.55,0-.37-.16-.62-.41-.62m-.25-.75c-.13,0-.2-.08-.2-.25a.39.39,0,0,1,.33-.42.21.21,0,0,1,.21.24.39.39,0,0,1-.34.43m.94,0c-.13,0-.21-.08-.21-.25A.39.39,0,0,1,45,67c.12,0,.2.1.2.24a.39.39,0,0,1-.33.43"/><path d="M45.4,71.52l.29-1.2.07-.28.33-1.53H45.6a3.34,3.34,0,0,0,.07-.33h.49a3.07,3.07,0,0,1,.13-.57,1,1,0,0,1,1-.74,1,1,0,0,1,.6.15,2.34,2.34,0,0,0-.15.27.75.75,0,0,0-.37-.11.53.53,0,0,0-.43.21,2.16,2.16,0,0,0-.25.79h.74c0,.15-.05.19-.08.34h-.72l-.32,1.55c-.07.31-.23,1-.35,1.46l-.16.65-.11,0a2.28,2.28,0,0,0-.46-.1Z"/><path d="M47.32,71.52l.29-1.2.07-.28L48,68.51h-.49a3.34,3.34,0,0,0,.07-.33h.49a3.07,3.07,0,0,1,.13-.57,1,1,0,0,1,1-.74,1,1,0,0,1,.6.15,2.34,2.34,0,0,0-.15.27.75.75,0,0,0-.37-.11.5.5,0,0,0-.42.21,1.94,1.94,0,0,0-.26.79h.74a2.05,2.05,0,0,0-.07.34h-.73l-.32,1.55c-.07.31-.23,1-.35,1.46l-.16.65-.11,0a2.28,2.28,0,0,0-.46-.1Z"/><path d="M50.33,70.89a1,1,0,0,1-1.07-1.08,1.64,1.64,0,0,1,1.62-1.72c.52,0,.86.24.86.6,0,.54-.71,1-1.61,1h-.21a1.72,1.72,0,0,0,0,.2.59.59,0,0,0,.62.67,1,1,0,0,0,.63-.21l.15.23a1.46,1.46,0,0,1-1,.37m.49-1.76a.62.62,0,0,0,.28-.5.25.25,0,0,0-.24-.28.72.72,0,0,0-.49.23,1.62,1.62,0,0,0-.43.8,1.51,1.51,0,0,0,.88-.25"/><path d="M51.92,70.63l.29-1.28a7.38,7.38,0,0,0,.18-1.2l.25,0,.31,0a8.81,8.81,0,0,1-.14.89,2.88,2.88,0,0,1,.33-.49,1.2,1.2,0,0,1,.88-.46.55.55,0,0,1,.59.63,1.41,1.41,0,0,1,0,.28c-.07.43-.24,1.15-.4,1.74l0,.08h-.62c.15-.53.28-1,.37-1.43a2.48,2.48,0,0,0,.11-.65c0-.17-.08-.26-.21-.26s-.48.22-.73.56a2.42,2.42,0,0,0-.36.72l-.24,1.06h-.6Z"/><path d="M55.88,67.55H56l.46-.1.08,0-.19.76H57a2.26,2.26,0,0,0-.07.28v0h-.66l0,.2L55.88,70a1.54,1.54,0,0,0-.06.31c0,.16.08.26.23.26a.68.68,0,0,0,.33-.1.64.64,0,0,0,.08.19l0,0a1.37,1.37,0,0,1-.74.22c-.35,0-.54-.18-.54-.5a2.12,2.12,0,0,1,.08-.51l.34-1.38h-.47a1.87,1.87,0,0,0,.08-.28v0h.48Z"/><path d="M57,70.54l.75-3.41,0-.24h.62l-.05.24-.75,3.41,0,.28H57Z"/><path d="M59.31,68.18h.32l-.06.24-.47,2.17-.05.24h-.64l.06-.24L59,68.41l0-.24h.32m.09-.5c-.14,0-.22-.1-.22-.27a.43.43,0,0,1,.37-.46.22.22,0,0,1,.22.25c0,.27-.16.48-.37.48"/><path d="M61.46,68.37c-.46,0-.9.67-.9,1.35a.66.66,0,0,0,.7.75.94.94,0,0,0,.5-.15l.16.24a1.32,1.32,0,0,1-.91.33,1.05,1.05,0,0,1-1.11-1.15,1.58,1.58,0,0,1,1.57-1.65.8.8,0,0,1,.91.74,4.6,4.6,0,0,0-.55.12l0,0c0-.39-.11-.6-.32-.6"/><path d="M62.53,70.3l.7-3.16,0-.25a1.1,1.1,0,0,0,.25,0,2.06,2.06,0,0,0,.33,0l-.41,1.81a.35.35,0,0,0,0,.07c0,.14,0,.16-.09.28l.07-.1a3,3,0,0,1,.31-.42,1.12,1.12,0,0,1,.84-.44c.38,0,.58.21.58.62a8.76,8.76,0,0,1-.4,1.93l0,.18h-.62l.09-.3a9.16,9.16,0,0,0,.4-1.73c0-.21-.07-.31-.21-.31a1.16,1.16,0,0,0-.73.56,2.15,2.15,0,0,0-.37.72L63,70.82h-.6Z"/><path d="M66.6,70.89a1,1,0,0,1-1.08-1.08,1.65,1.65,0,0,1,1.62-1.72c.53,0,.86.24.86.6,0,.54-.7,1-1.6,1h-.22c0,.09,0,.16,0,.2a.6.6,0,0,0,.63.67,1,1,0,0,0,.63-.21l.14.23a1.43,1.43,0,0,1-1,.37m.49-1.76a.62.62,0,0,0,.28-.5.26.26,0,0,0-.25-.28.72.72,0,0,0-.48.23,1.54,1.54,0,0,0-.43.8,1.51,1.51,0,0,0,.88-.25"/><path d="M68.18,70.63l.3-1.28a9,9,0,0,0,.17-1.2l.26,0,.3,0c0,.43-.06.53-.13.89a2.88,2.88,0,0,1,.33-.49,1.19,1.19,0,0,1,.88-.46.55.55,0,0,1,.59.63c0,.09,0,.18,0,.28-.07.43-.25,1.15-.41,1.74l0,.08H69.8c.15-.53.27-1,.37-1.43a3,3,0,0,0,.11-.65c0-.17-.08-.26-.22-.26a1.17,1.17,0,0,0-.72.56,2.2,2.2,0,0,0-.36.72l-.25,1.06h-.59Z"/><path d="M74.59,69.09l.11.18.73,1.55h-.8l-.56-1.49c-.08-.23-.19-.31-.36-.31h0c-.21,1-.25,1.17-.35,1.8h-.68l.07-.29c.34-1.48.52-2.31.67-3.09l.05-.27a3.87,3.87,0,0,1,.79-.07,3.93,3.93,0,0,1,.52,0c.52.09.81.38.81.8s-.44.91-1.12,1a.38.38,0,0,1,.16.15M74,67.74c-.15.6-.16.65-.23,1h.17c.58,0,.95-.3.95-.79,0-.34-.22-.53-.61-.53H74Z"/><path d="M76.91,70.89a1,1,0,0,1-1.08-1.08,1.65,1.65,0,0,1,1.63-1.72c.52,0,.86.24.86.6,0,.54-.71,1-1.61,1h-.22c0,.09,0,.16,0,.2a.6.6,0,0,0,.63.67,1,1,0,0,0,.63-.21l.14.23a1.43,1.43,0,0,1-1,.37m.49-1.76a.62.62,0,0,0,.28-.5.26.26,0,0,0-.25-.28.72.72,0,0,0-.48.23,1.62,1.62,0,0,0-.43.8,1.51,1.51,0,0,0,.88-.25"/><path d="M80,68.37c-.45,0-.89.67-.89,1.35a.66.66,0,0,0,.7.75,1,1,0,0,0,.5-.15l.16.24a1.36,1.36,0,0,1-.92.33,1,1,0,0,1-1.1-1.15A1.57,1.57,0,0,1,80,68.09a.8.8,0,0,1,.9.74,4.47,4.47,0,0,0-.54.12l-.06,0c0-.39-.11-.6-.32-.6"/><path d="M81.1,70.3l.69-3.16,0-.25a1.1,1.1,0,0,0,.25,0l.32,0L82,68.7s0,0,0,.07a1.84,1.84,0,0,1-.09.28L82,69a2.46,2.46,0,0,1,.3-.42,1.14,1.14,0,0,1,.85-.44c.38,0,.58.21.58.62a8.76,8.76,0,0,1-.4,1.93l0,.18h-.62l.08-.3a9.16,9.16,0,0,0,.4-1.73c0-.21-.07-.31-.21-.31s-.48.22-.73.56a2.6,2.6,0,0,0-.37.72l-.23,1.06H81Z"/><path d="M85,67.55h.07l.46-.1.08,0-.19.76h.66a2.26,2.26,0,0,0-.07.28v0h-.66l0,.2L85,70a1.54,1.54,0,0,0-.06.31c0,.16.08.26.23.26a.68.68,0,0,0,.33-.1.64.64,0,0,0,.08.19l0,0a1.37,1.37,0,0,1-.74.22c-.35,0-.54-.18-.54-.5a2.12,2.12,0,0,1,.08-.51l.34-1.38h-.47a1.87,1.87,0,0,0,.08-.28v0h.48Z"/><path d="M86.2,70.25a.59.59,0,0,0,.48.25.34.34,0,0,0,.39-.33.85.85,0,0,0-.24-.5l-.06-.08-.16-.2a.82.82,0,0,1-.2-.55c0-.45.37-.75.94-.75a1.25,1.25,0,0,1,.7.2c-.07.11-.09.15-.18.31a.86.86,0,0,0-.49-.16c-.22,0-.36.11-.36.28a.7.7,0,0,0,.19.41l.19.25a1,1,0,0,1,.3.69.88.88,0,0,1-1,.81A1,1,0,0,1,86,70.6l0,0a1.69,1.69,0,0,0,.25-.32"/></g></g></svg>